G04 DipTrace 2.3.1.0*
%INlinebot-sensor-v2.0.gto*%
%MOIN*%
%ADD10C,0.0098*%
%ADD36C,0.0077*%
%FSLAX44Y44*%
G04*
G70*
G90*
G75*
G01*
%LNTopSilk*%
%LPD*%
X1750Y2500D2*
D10*
X750D1*
Y5500D1*
X1750D2*
X750D1*
X1750Y2500D2*
Y5500D1*
X4998Y6000D2*
X3002D1*
Y7000D2*
Y6000D1*
X4998Y7000D2*
X3002D1*
X4998D2*
Y6000D1*
X2752Y2250D2*
X4748D1*
Y1250D2*
Y2250D1*
X2752Y1250D2*
X4748D1*
X2752D2*
Y2250D1*
X1920Y3738D2*
D36*
X2302D1*
X2374Y3714D1*
X2398Y3690D1*
X2422Y3642D1*
Y3594D1*
X2398Y3547D1*
X2374Y3523D1*
X2302Y3499D1*
X2255D1*
X2016Y3892D2*
X1991Y3940D1*
X1920Y4012D1*
X2422D1*
X1920Y4310D2*
X1944Y4238D1*
X2016Y4190D1*
X2135Y4167D1*
X2207D1*
X2326Y4190D1*
X2398Y4238D1*
X2422Y4310D1*
Y4358D1*
X2398Y4430D1*
X2326Y4477D1*
X2207Y4501D1*
X2135D1*
X2016Y4477D1*
X1944Y4430D1*
X1920Y4358D1*
Y4310D1*
X2016Y4477D2*
X2326Y4190D1*
X3695Y6542D2*
X3910D1*
X3982Y6566D1*
X4007Y6590D1*
X4030Y6638D1*
Y6686D1*
X4007Y6733D1*
X3982Y6758D1*
X3910Y6781D1*
X3695D1*
Y6279D1*
X3863Y6542D2*
X4030Y6279D1*
X4185Y6685D2*
X4233Y6709D1*
X4305Y6781D1*
Y6279D1*
X3338Y1792D2*
X3553D1*
X3625Y1816D1*
X3649Y1840D1*
X3673Y1888D1*
Y1936D1*
X3649Y1983D1*
X3625Y2008D1*
X3553Y2031D1*
X3338D1*
Y1529D1*
X3505Y1792D2*
X3673Y1529D1*
X3852Y1911D2*
Y1935D1*
X3875Y1983D1*
X3899Y2007D1*
X3947Y2031D1*
X4043D1*
X4090Y2007D1*
X4114Y1983D1*
X4138Y1935D1*
Y1888D1*
X4114Y1840D1*
X4067Y1768D1*
X3827Y1529D1*
X4162D1*
M02*
