M48
INCH,TZ
T1C0.025
T2C0.032
T3C0.035
T4C0.039
T5C0.045
T6C0.120
%
G90
G05
T1
X26100Y-11200
X29100Y-11200
T2
X10500Y-8000
X10500Y-11000
X10500Y-12500
X10500Y-15500
X10500Y-18500
X10500Y-21500
X10500Y-23000
X10500Y-26000
X12000Y-10000
X12000Y-13500
X12000Y-20500
X12000Y-24000
X13000Y-10000
X13000Y-13500
X13000Y-20500
X13000Y-24000
X21500Y-15300
X22500Y-11300
X23500Y-15300
X35500Y-15200
X36500Y-11200
X37500Y-15200
T3
X19500Y-17100
X23500Y-17100
X35500Y-17200
X39500Y-17200
T4
X8000Y-10500
X8000Y-11500
X8000Y-12500
X8000Y-21000
X8000Y-22000
X8000Y-23000
X17500Y-14300
X18500Y-14300
X27300Y-19500
X28300Y-19500
X29300Y-19500
X31300Y-19500
X31900Y-11200
X32300Y-19500
X32900Y-11200
X33300Y-19500
X40300Y-14300
X41300Y-14300
T5
X25300Y-19300
X25300Y-20300
X25300Y-21300
X25450Y-14150
X25450Y-15150
X25450Y-16150
X35000Y-19200
X35000Y-20200
X35000Y-21200
T6
X18800Y-20300
X31950Y-15150
X41500Y-20200
T0
M30
