G04 (created by PCBNEW (2013-07-07 BZR 4022)-stable) date 1/3/2014 7:24:35 AM*
%MOIN*%
G04 Gerber Fmt 3.4, Leading zero omitted, Abs format*
%FSLAX34Y34*%
G01*
G70*
G90*
G04 APERTURE LIST*
%ADD10C,0.00590551*%
%ADD11R,0.07X0.07*%
%ADD12C,0.07*%
%ADD13R,0.35X0.35*%
%ADD14C,0.055*%
%ADD15C,0.0882*%
%ADD16R,0.0882X0.0882*%
%ADD17O,0.0593X0.1187*%
%ADD18O,0.1187X0.0593*%
%ADD19C,0.066*%
%ADD20R,0.06X0.06*%
%ADD21C,0.06*%
%ADD22C,0.01*%
%ADD23C,0.02*%
G04 APERTURE END LIST*
G54D10*
G54D11*
X35000Y-21200D03*
G54D12*
X35000Y-19200D03*
X35000Y-20200D03*
G54D13*
X41500Y-20200D03*
G54D11*
X25300Y-19300D03*
G54D12*
X25300Y-21300D03*
X25300Y-20300D03*
G54D13*
X18800Y-20300D03*
G54D14*
X10500Y-15500D03*
X10500Y-12500D03*
X10500Y-8000D03*
X10500Y-11000D03*
X10500Y-26000D03*
X10500Y-23000D03*
X10500Y-18500D03*
X10500Y-21500D03*
G54D15*
X36500Y-11200D03*
G54D16*
X35500Y-15200D03*
G54D15*
X37500Y-15200D03*
X22500Y-11300D03*
G54D16*
X21500Y-15300D03*
G54D15*
X23500Y-15300D03*
G54D17*
X31300Y-19500D03*
X32300Y-19500D03*
X33300Y-19500D03*
X27300Y-19500D03*
X28300Y-19500D03*
X29300Y-19500D03*
G54D18*
X8000Y-23000D03*
X8000Y-22000D03*
X8000Y-21000D03*
X8000Y-12500D03*
X8000Y-11500D03*
X8000Y-10500D03*
G54D17*
X17500Y-14300D03*
X18500Y-14300D03*
X40300Y-14300D03*
X41300Y-14300D03*
G54D13*
X31950Y-15150D03*
G54D12*
X25450Y-14150D03*
G54D11*
X25450Y-15150D03*
G54D12*
X25450Y-16150D03*
G54D19*
X13000Y-24000D03*
X12000Y-24000D03*
X13000Y-10000D03*
X12000Y-10000D03*
X13000Y-20500D03*
X12000Y-20500D03*
X13000Y-13500D03*
X12000Y-13500D03*
G54D20*
X19500Y-17100D03*
G54D21*
X23500Y-17100D03*
G54D20*
X39500Y-17200D03*
G54D21*
X35500Y-17200D03*
G54D12*
X29100Y-11200D03*
X26100Y-11200D03*
G54D17*
X31900Y-11200D03*
X32900Y-11200D03*
G54D22*
X32900Y-11200D02*
X32900Y-10700D01*
X32900Y-10700D02*
X32200Y-10000D01*
X32200Y-10000D02*
X23100Y-10000D01*
X23100Y-10000D02*
X22500Y-10600D01*
X22500Y-10600D02*
X22500Y-13000D01*
G54D23*
X27100Y-19300D02*
X27300Y-19500D01*
X25450Y-15150D02*
X26550Y-15150D01*
X26550Y-15150D02*
X27300Y-15900D01*
X27300Y-15900D02*
X27300Y-18300D01*
X27300Y-18300D02*
X27300Y-19500D01*
X22500Y-11300D02*
X22500Y-13000D01*
X22500Y-13000D02*
X24650Y-15150D01*
X24650Y-15150D02*
X25450Y-15150D01*
G54D22*
X27300Y-18100D02*
X27600Y-17800D01*
X27600Y-17800D02*
X32000Y-17800D01*
X31300Y-19500D02*
X31300Y-18300D01*
X31800Y-17800D02*
X32000Y-17800D01*
X31300Y-18300D02*
X31800Y-17800D01*
X25300Y-19300D02*
X26100Y-19300D01*
X26100Y-19300D02*
X26300Y-19100D01*
X26300Y-19100D02*
X27300Y-18100D01*
X26550Y-15150D02*
X27300Y-15900D01*
X27300Y-15900D02*
X27300Y-18100D01*
X27300Y-18100D02*
X27300Y-19500D01*
X24650Y-15150D02*
X25450Y-15150D01*
X22500Y-13000D02*
X24650Y-15150D01*
X32900Y-11200D02*
X36500Y-11200D01*
X33600Y-17800D02*
X34200Y-17200D01*
X34200Y-17200D02*
X34200Y-11300D01*
X34200Y-20400D02*
X35000Y-21200D01*
X34200Y-18400D02*
X34200Y-20400D01*
X33600Y-17800D02*
X34200Y-18400D01*
X32000Y-17800D02*
X33600Y-17800D01*
X10500Y-11500D02*
X9500Y-12500D01*
X9500Y-12500D02*
X9000Y-12500D01*
X10500Y-11500D02*
X10500Y-11000D01*
X8000Y-12500D02*
X9000Y-12500D01*
X9000Y-12500D02*
X10500Y-12500D01*
X9500Y-23000D02*
X10500Y-23000D01*
X9500Y-23000D02*
X10500Y-22000D01*
X8000Y-23000D02*
X9500Y-23000D01*
X10500Y-22000D02*
X10500Y-21500D01*
X23500Y-17100D02*
X23500Y-16600D01*
X20300Y-16100D02*
X18500Y-14300D01*
X23000Y-16100D02*
X20300Y-16100D01*
X23500Y-16600D02*
X23000Y-16100D01*
X23500Y-17100D02*
X23500Y-19700D01*
X24100Y-20300D02*
X25300Y-20300D01*
X23500Y-19700D02*
X24100Y-20300D01*
X36100Y-16100D02*
X40400Y-16100D01*
X35500Y-17200D02*
X35500Y-16700D01*
X35500Y-16700D02*
X36100Y-16100D01*
X41300Y-15200D02*
X41300Y-14300D01*
X40400Y-16100D02*
X41300Y-15200D01*
X35000Y-20200D02*
X35400Y-20200D01*
X36000Y-17700D02*
X35500Y-17200D01*
X36000Y-19600D02*
X36000Y-17700D01*
X35400Y-20200D02*
X36000Y-19600D01*
G54D10*
G36*
X43850Y-23130D02*
X43500Y-23130D01*
X43500Y-21900D01*
X43500Y-18400D01*
X43462Y-18308D01*
X43391Y-18238D01*
X43299Y-18200D01*
X43200Y-18199D01*
X41846Y-18199D01*
X41846Y-14613D01*
X41846Y-13986D01*
X41804Y-13777D01*
X41686Y-13600D01*
X41509Y-13481D01*
X41300Y-13439D01*
X41090Y-13481D01*
X40913Y-13600D01*
X40800Y-13770D01*
X40686Y-13600D01*
X40509Y-13481D01*
X40300Y-13439D01*
X40090Y-13481D01*
X39913Y-13600D01*
X39795Y-13777D01*
X39753Y-13986D01*
X39753Y-14613D01*
X39795Y-14822D01*
X39913Y-14999D01*
X40090Y-15118D01*
X40300Y-15160D01*
X40509Y-15118D01*
X40686Y-14999D01*
X40800Y-14829D01*
X40913Y-14999D01*
X41000Y-15057D01*
X41000Y-15075D01*
X40275Y-15800D01*
X37857Y-15800D01*
X37890Y-15786D01*
X38085Y-15591D01*
X38190Y-15338D01*
X38191Y-15063D01*
X38086Y-14809D01*
X37891Y-14614D01*
X37638Y-14509D01*
X37363Y-14508D01*
X37195Y-14578D01*
X37195Y-11315D01*
X37186Y-11040D01*
X37097Y-10827D01*
X36987Y-10782D01*
X36917Y-10853D01*
X36917Y-10712D01*
X36872Y-10602D01*
X36615Y-10504D01*
X36340Y-10513D01*
X36127Y-10602D01*
X36082Y-10712D01*
X36500Y-11129D01*
X36917Y-10712D01*
X36917Y-10853D01*
X36570Y-11200D01*
X36987Y-11617D01*
X37097Y-11572D01*
X37195Y-11315D01*
X37195Y-14578D01*
X37109Y-14613D01*
X36917Y-14805D01*
X36917Y-11687D01*
X36500Y-11270D01*
X36429Y-11341D01*
X36429Y-11200D01*
X36012Y-10782D01*
X35902Y-10827D01*
X35804Y-11084D01*
X35813Y-11359D01*
X35902Y-11572D01*
X36012Y-11617D01*
X36429Y-11200D01*
X36429Y-11341D01*
X36082Y-11687D01*
X36127Y-11797D01*
X36384Y-11895D01*
X36659Y-11886D01*
X36872Y-11797D01*
X36917Y-11687D01*
X36917Y-14805D01*
X36914Y-14808D01*
X36809Y-15061D01*
X36808Y-15336D01*
X36913Y-15590D01*
X37108Y-15785D01*
X37143Y-15800D01*
X36135Y-15800D01*
X36152Y-15782D01*
X36190Y-15690D01*
X36191Y-15591D01*
X36191Y-14709D01*
X36153Y-14617D01*
X36082Y-14547D01*
X35990Y-14509D01*
X35891Y-14508D01*
X35009Y-14508D01*
X34917Y-14546D01*
X34847Y-14617D01*
X34809Y-14709D01*
X34808Y-14808D01*
X34808Y-15690D01*
X34846Y-15782D01*
X34917Y-15852D01*
X35009Y-15890D01*
X35108Y-15891D01*
X35884Y-15891D01*
X35287Y-16487D01*
X35222Y-16585D01*
X35200Y-16700D01*
X35200Y-16728D01*
X35188Y-16733D01*
X35034Y-16888D01*
X34950Y-17090D01*
X34949Y-17308D01*
X35033Y-17511D01*
X35188Y-17665D01*
X35390Y-17749D01*
X35608Y-17750D01*
X35620Y-17745D01*
X35700Y-17824D01*
X35700Y-19475D01*
X35412Y-19763D01*
X35348Y-19699D01*
X35508Y-19540D01*
X35599Y-19319D01*
X35600Y-19081D01*
X35508Y-18860D01*
X35340Y-18691D01*
X35119Y-18600D01*
X34881Y-18599D01*
X34660Y-18691D01*
X34491Y-18859D01*
X34400Y-19080D01*
X34399Y-19318D01*
X34491Y-19539D01*
X34651Y-19700D01*
X34491Y-19859D01*
X34400Y-20080D01*
X34399Y-20318D01*
X34491Y-20539D01*
X34565Y-20614D01*
X34508Y-20637D01*
X34438Y-20708D01*
X34400Y-20800D01*
X34399Y-20899D01*
X34400Y-21087D01*
X34462Y-21150D01*
X34950Y-21150D01*
X34950Y-21142D01*
X35050Y-21142D01*
X35050Y-21150D01*
X35537Y-21150D01*
X35600Y-21087D01*
X35600Y-20899D01*
X35599Y-20800D01*
X35561Y-20708D01*
X35491Y-20637D01*
X35434Y-20614D01*
X35508Y-20540D01*
X35542Y-20458D01*
X35612Y-20412D01*
X36212Y-19812D01*
X36212Y-19812D01*
X36277Y-19714D01*
X36299Y-19600D01*
X36300Y-19600D01*
X36300Y-17700D01*
X36277Y-17585D01*
X36212Y-17487D01*
X36212Y-17487D01*
X36045Y-17321D01*
X36049Y-17309D01*
X36050Y-17091D01*
X35966Y-16888D01*
X35851Y-16773D01*
X36224Y-16400D01*
X40400Y-16400D01*
X40400Y-16399D01*
X40514Y-16377D01*
X40514Y-16377D01*
X40612Y-16312D01*
X41512Y-15412D01*
X41512Y-15412D01*
X41577Y-15314D01*
X41599Y-15200D01*
X41600Y-15200D01*
X41600Y-15057D01*
X41686Y-14999D01*
X41804Y-14822D01*
X41846Y-14613D01*
X41846Y-18199D01*
X40050Y-18199D01*
X40050Y-17450D01*
X40050Y-16850D01*
X40012Y-16758D01*
X39941Y-16688D01*
X39849Y-16650D01*
X39750Y-16649D01*
X39150Y-16649D01*
X39058Y-16687D01*
X38988Y-16758D01*
X38950Y-16850D01*
X38949Y-16949D01*
X38949Y-17549D01*
X38987Y-17641D01*
X39058Y-17711D01*
X39150Y-17749D01*
X39249Y-17750D01*
X39849Y-17750D01*
X39941Y-17712D01*
X40011Y-17641D01*
X40049Y-17549D01*
X40050Y-17450D01*
X40050Y-18199D01*
X39700Y-18199D01*
X39608Y-18237D01*
X39538Y-18308D01*
X39500Y-18400D01*
X39499Y-18499D01*
X39499Y-21999D01*
X39537Y-22091D01*
X39608Y-22161D01*
X39700Y-22199D01*
X39799Y-22200D01*
X43299Y-22200D01*
X43391Y-22162D01*
X43461Y-22091D01*
X43499Y-21999D01*
X43500Y-21900D01*
X43500Y-23130D01*
X35600Y-23130D01*
X35600Y-21500D01*
X35600Y-21312D01*
X35537Y-21250D01*
X35050Y-21250D01*
X35050Y-21737D01*
X35112Y-21800D01*
X35399Y-21800D01*
X35491Y-21762D01*
X35561Y-21691D01*
X35599Y-21599D01*
X35600Y-21500D01*
X35600Y-23130D01*
X34950Y-23130D01*
X34950Y-21737D01*
X34950Y-21250D01*
X34462Y-21250D01*
X34400Y-21312D01*
X34399Y-21500D01*
X34400Y-21599D01*
X34438Y-21691D01*
X34508Y-21762D01*
X34600Y-21800D01*
X34887Y-21800D01*
X34950Y-21737D01*
X34950Y-23130D01*
X33950Y-23130D01*
X33950Y-16850D01*
X33950Y-13350D01*
X33912Y-13258D01*
X33841Y-13188D01*
X33749Y-13150D01*
X33650Y-13149D01*
X33446Y-13149D01*
X33446Y-11547D01*
X33446Y-11250D01*
X33446Y-11150D01*
X33446Y-10853D01*
X33385Y-10647D01*
X33251Y-10481D01*
X33062Y-10378D01*
X33034Y-10373D01*
X32950Y-10421D01*
X32950Y-11150D01*
X33446Y-11150D01*
X33446Y-11250D01*
X32950Y-11250D01*
X32950Y-11978D01*
X33034Y-12026D01*
X33062Y-12021D01*
X33251Y-11918D01*
X33385Y-11752D01*
X33446Y-11547D01*
X33446Y-13149D01*
X32850Y-13149D01*
X32850Y-11978D01*
X32850Y-11250D01*
X32842Y-11250D01*
X32842Y-11150D01*
X32850Y-11150D01*
X32850Y-10421D01*
X32765Y-10373D01*
X32737Y-10378D01*
X32548Y-10481D01*
X32414Y-10647D01*
X32405Y-10678D01*
X32404Y-10677D01*
X32286Y-10500D01*
X32109Y-10381D01*
X31900Y-10339D01*
X31690Y-10381D01*
X31513Y-10500D01*
X31395Y-10677D01*
X31353Y-10886D01*
X31353Y-11513D01*
X31395Y-11722D01*
X31513Y-11899D01*
X31690Y-12018D01*
X31900Y-12060D01*
X32109Y-12018D01*
X32286Y-11899D01*
X32404Y-11722D01*
X32405Y-11721D01*
X32414Y-11752D01*
X32548Y-11918D01*
X32737Y-12021D01*
X32765Y-12026D01*
X32850Y-11978D01*
X32850Y-13149D01*
X30150Y-13149D01*
X30058Y-13187D01*
X29988Y-13258D01*
X29950Y-13350D01*
X29949Y-13449D01*
X29949Y-16949D01*
X29987Y-17041D01*
X30058Y-17111D01*
X30150Y-17149D01*
X30249Y-17150D01*
X33749Y-17150D01*
X33841Y-17112D01*
X33911Y-17041D01*
X33949Y-16949D01*
X33950Y-16850D01*
X33950Y-23130D01*
X33846Y-23130D01*
X33846Y-19813D01*
X33846Y-19186D01*
X33804Y-18977D01*
X33686Y-18800D01*
X33509Y-18681D01*
X33300Y-18639D01*
X33090Y-18681D01*
X32913Y-18800D01*
X32800Y-18970D01*
X32686Y-18800D01*
X32509Y-18681D01*
X32300Y-18639D01*
X32090Y-18681D01*
X31913Y-18800D01*
X31795Y-18977D01*
X31794Y-18978D01*
X31785Y-18947D01*
X31651Y-18781D01*
X31462Y-18678D01*
X31434Y-18673D01*
X31350Y-18721D01*
X31350Y-19450D01*
X31357Y-19450D01*
X31357Y-19550D01*
X31350Y-19550D01*
X31350Y-20278D01*
X31434Y-20326D01*
X31462Y-20321D01*
X31651Y-20218D01*
X31785Y-20052D01*
X31794Y-20021D01*
X31795Y-20022D01*
X31913Y-20199D01*
X32090Y-20318D01*
X32300Y-20360D01*
X32509Y-20318D01*
X32686Y-20199D01*
X32800Y-20029D01*
X32913Y-20199D01*
X33090Y-20318D01*
X33300Y-20360D01*
X33509Y-20318D01*
X33686Y-20199D01*
X33804Y-20022D01*
X33846Y-19813D01*
X33846Y-23130D01*
X31250Y-23130D01*
X31250Y-20278D01*
X31250Y-19550D01*
X31250Y-19450D01*
X31250Y-18721D01*
X31165Y-18673D01*
X31137Y-18678D01*
X30948Y-18781D01*
X30814Y-18947D01*
X30753Y-19153D01*
X30753Y-19450D01*
X31250Y-19450D01*
X31250Y-19550D01*
X30753Y-19550D01*
X30753Y-19847D01*
X30814Y-20052D01*
X30948Y-20218D01*
X31137Y-20321D01*
X31165Y-20326D01*
X31250Y-20278D01*
X31250Y-23130D01*
X29846Y-23130D01*
X29846Y-19813D01*
X29846Y-19186D01*
X29804Y-18977D01*
X29700Y-18820D01*
X29700Y-11081D01*
X29608Y-10860D01*
X29440Y-10691D01*
X29219Y-10600D01*
X28981Y-10599D01*
X28760Y-10691D01*
X28591Y-10859D01*
X28500Y-11080D01*
X28499Y-11318D01*
X28591Y-11539D01*
X28759Y-11708D01*
X28980Y-11799D01*
X29218Y-11800D01*
X29439Y-11708D01*
X29608Y-11540D01*
X29699Y-11319D01*
X29700Y-11081D01*
X29700Y-18820D01*
X29686Y-18800D01*
X29509Y-18681D01*
X29300Y-18639D01*
X29090Y-18681D01*
X28913Y-18800D01*
X28800Y-18970D01*
X28686Y-18800D01*
X28509Y-18681D01*
X28300Y-18639D01*
X28090Y-18681D01*
X27913Y-18800D01*
X27795Y-18977D01*
X27794Y-18978D01*
X27785Y-18947D01*
X27651Y-18781D01*
X27462Y-18678D01*
X27434Y-18673D01*
X27350Y-18721D01*
X27350Y-19450D01*
X27357Y-19450D01*
X27357Y-19550D01*
X27350Y-19550D01*
X27350Y-20278D01*
X27434Y-20326D01*
X27462Y-20321D01*
X27651Y-20218D01*
X27785Y-20052D01*
X27794Y-20021D01*
X27795Y-20022D01*
X27913Y-20199D01*
X28090Y-20318D01*
X28300Y-20360D01*
X28509Y-20318D01*
X28686Y-20199D01*
X28800Y-20029D01*
X28913Y-20199D01*
X29090Y-20318D01*
X29300Y-20360D01*
X29509Y-20318D01*
X29686Y-20199D01*
X29804Y-20022D01*
X29846Y-19813D01*
X29846Y-23130D01*
X27250Y-23130D01*
X27250Y-20278D01*
X27250Y-19550D01*
X27250Y-19450D01*
X27250Y-18721D01*
X27165Y-18673D01*
X27137Y-18678D01*
X26948Y-18781D01*
X26814Y-18947D01*
X26753Y-19153D01*
X26753Y-19450D01*
X27250Y-19450D01*
X27250Y-19550D01*
X26753Y-19550D01*
X26753Y-19847D01*
X26814Y-20052D01*
X26948Y-20218D01*
X27137Y-20321D01*
X27165Y-20326D01*
X27250Y-20278D01*
X27250Y-23130D01*
X26700Y-23130D01*
X26700Y-11081D01*
X26608Y-10860D01*
X26440Y-10691D01*
X26219Y-10600D01*
X25981Y-10599D01*
X25760Y-10691D01*
X25591Y-10859D01*
X25500Y-11080D01*
X25499Y-11318D01*
X25591Y-11539D01*
X25759Y-11708D01*
X25980Y-11799D01*
X26218Y-11800D01*
X26439Y-11708D01*
X26608Y-11540D01*
X26699Y-11319D01*
X26700Y-11081D01*
X26700Y-23130D01*
X26050Y-23130D01*
X26050Y-16031D01*
X26050Y-14031D01*
X25958Y-13810D01*
X25790Y-13641D01*
X25569Y-13550D01*
X25331Y-13549D01*
X25110Y-13641D01*
X24941Y-13809D01*
X24850Y-14030D01*
X24849Y-14268D01*
X24941Y-14489D01*
X25015Y-14564D01*
X24958Y-14587D01*
X24888Y-14658D01*
X24850Y-14750D01*
X24849Y-14849D01*
X24850Y-15037D01*
X24912Y-15100D01*
X25400Y-15100D01*
X25400Y-15092D01*
X25500Y-15092D01*
X25500Y-15100D01*
X25987Y-15100D01*
X26050Y-15037D01*
X26050Y-14849D01*
X26049Y-14750D01*
X26011Y-14658D01*
X25941Y-14587D01*
X25884Y-14564D01*
X25958Y-14490D01*
X26049Y-14269D01*
X26050Y-14031D01*
X26050Y-16031D01*
X25958Y-15810D01*
X25884Y-15735D01*
X25941Y-15712D01*
X26011Y-15641D01*
X26049Y-15549D01*
X26050Y-15450D01*
X26050Y-15262D01*
X25987Y-15200D01*
X25500Y-15200D01*
X25500Y-15207D01*
X25400Y-15207D01*
X25400Y-15200D01*
X24912Y-15200D01*
X24850Y-15262D01*
X24849Y-15450D01*
X24850Y-15549D01*
X24888Y-15641D01*
X24958Y-15712D01*
X25015Y-15735D01*
X24941Y-15809D01*
X24850Y-16030D01*
X24849Y-16268D01*
X24941Y-16489D01*
X25109Y-16658D01*
X25330Y-16749D01*
X25568Y-16750D01*
X25789Y-16658D01*
X25958Y-16490D01*
X26049Y-16269D01*
X26050Y-16031D01*
X26050Y-23130D01*
X25900Y-23130D01*
X25900Y-21181D01*
X25808Y-20960D01*
X25648Y-20799D01*
X25808Y-20640D01*
X25899Y-20419D01*
X25900Y-20181D01*
X25808Y-19960D01*
X25734Y-19885D01*
X25791Y-19862D01*
X25861Y-19791D01*
X25899Y-19699D01*
X25900Y-19600D01*
X25900Y-18999D01*
X25899Y-18900D01*
X25861Y-18808D01*
X25791Y-18737D01*
X25699Y-18699D01*
X25412Y-18700D01*
X25350Y-18762D01*
X25350Y-19250D01*
X25837Y-19250D01*
X25900Y-19187D01*
X25900Y-18999D01*
X25900Y-19600D01*
X25900Y-19412D01*
X25837Y-19350D01*
X25350Y-19350D01*
X25350Y-19357D01*
X25250Y-19357D01*
X25250Y-19350D01*
X25250Y-19250D01*
X25250Y-18762D01*
X25187Y-18700D01*
X24900Y-18699D01*
X24808Y-18737D01*
X24738Y-18808D01*
X24700Y-18900D01*
X24699Y-18999D01*
X24700Y-19187D01*
X24762Y-19250D01*
X25250Y-19250D01*
X25250Y-19350D01*
X24762Y-19350D01*
X24700Y-19412D01*
X24699Y-19600D01*
X24700Y-19699D01*
X24738Y-19791D01*
X24808Y-19862D01*
X24865Y-19885D01*
X24791Y-19959D01*
X24774Y-20000D01*
X24224Y-20000D01*
X23800Y-19575D01*
X23800Y-17571D01*
X23811Y-17566D01*
X23965Y-17411D01*
X24049Y-17209D01*
X24050Y-16991D01*
X23966Y-16788D01*
X23811Y-16634D01*
X23800Y-16629D01*
X23800Y-16600D01*
X23777Y-16485D01*
X23712Y-16387D01*
X23712Y-16387D01*
X23281Y-15957D01*
X23361Y-15990D01*
X23636Y-15991D01*
X23890Y-15886D01*
X24085Y-15691D01*
X24190Y-15438D01*
X24191Y-15163D01*
X24086Y-14909D01*
X23891Y-14714D01*
X23638Y-14609D01*
X23363Y-14608D01*
X23195Y-14678D01*
X23195Y-11415D01*
X23186Y-11140D01*
X23097Y-10927D01*
X22987Y-10882D01*
X22917Y-10953D01*
X22917Y-10812D01*
X22872Y-10702D01*
X22615Y-10604D01*
X22340Y-10613D01*
X22127Y-10702D01*
X22082Y-10812D01*
X22500Y-11229D01*
X22917Y-10812D01*
X22917Y-10953D01*
X22570Y-11300D01*
X22987Y-11717D01*
X23097Y-11672D01*
X23195Y-11415D01*
X23195Y-14678D01*
X23109Y-14713D01*
X22917Y-14905D01*
X22917Y-11787D01*
X22500Y-11370D01*
X22429Y-11441D01*
X22429Y-11300D01*
X22012Y-10882D01*
X21902Y-10927D01*
X21804Y-11184D01*
X21813Y-11459D01*
X21902Y-11672D01*
X22012Y-11717D01*
X22429Y-11300D01*
X22429Y-11441D01*
X22082Y-11787D01*
X22127Y-11897D01*
X22384Y-11995D01*
X22659Y-11986D01*
X22872Y-11897D01*
X22917Y-11787D01*
X22917Y-14905D01*
X22914Y-14908D01*
X22809Y-15161D01*
X22808Y-15436D01*
X22913Y-15690D01*
X23028Y-15805D01*
X23000Y-15800D01*
X22187Y-15800D01*
X22190Y-15790D01*
X22191Y-15691D01*
X22191Y-14809D01*
X22153Y-14717D01*
X22082Y-14647D01*
X21990Y-14609D01*
X21891Y-14608D01*
X21009Y-14608D01*
X20917Y-14646D01*
X20847Y-14717D01*
X20809Y-14809D01*
X20808Y-14908D01*
X20808Y-15790D01*
X20812Y-15800D01*
X20424Y-15800D01*
X19046Y-14422D01*
X19046Y-13986D01*
X19004Y-13777D01*
X18886Y-13600D01*
X18709Y-13481D01*
X18500Y-13439D01*
X18290Y-13481D01*
X18113Y-13600D01*
X18000Y-13770D01*
X17886Y-13600D01*
X17709Y-13481D01*
X17500Y-13439D01*
X17290Y-13481D01*
X17113Y-13600D01*
X16995Y-13777D01*
X16953Y-13986D01*
X16953Y-14613D01*
X16995Y-14822D01*
X17113Y-14999D01*
X17290Y-15118D01*
X17500Y-15160D01*
X17709Y-15118D01*
X17886Y-14999D01*
X18000Y-14829D01*
X18113Y-14999D01*
X18290Y-15118D01*
X18500Y-15160D01*
X18709Y-15118D01*
X18820Y-15044D01*
X20087Y-16312D01*
X20087Y-16312D01*
X20185Y-16377D01*
X20300Y-16400D01*
X22875Y-16400D01*
X23148Y-16673D01*
X23034Y-16788D01*
X22950Y-16990D01*
X22949Y-17208D01*
X23033Y-17411D01*
X23188Y-17565D01*
X23200Y-17570D01*
X23200Y-19700D01*
X23222Y-19814D01*
X23287Y-19912D01*
X23887Y-20512D01*
X23887Y-20512D01*
X23985Y-20577D01*
X24100Y-20600D01*
X24774Y-20600D01*
X24791Y-20639D01*
X24951Y-20800D01*
X24791Y-20959D01*
X24700Y-21180D01*
X24699Y-21418D01*
X24791Y-21639D01*
X24959Y-21808D01*
X25180Y-21899D01*
X25418Y-21900D01*
X25639Y-21808D01*
X25808Y-21640D01*
X25899Y-21419D01*
X25900Y-21181D01*
X25900Y-23130D01*
X20800Y-23130D01*
X20800Y-22000D01*
X20800Y-18500D01*
X20762Y-18408D01*
X20691Y-18338D01*
X20599Y-18300D01*
X20500Y-18299D01*
X20050Y-18299D01*
X20050Y-17350D01*
X20050Y-16750D01*
X20012Y-16658D01*
X19941Y-16588D01*
X19849Y-16550D01*
X19750Y-16549D01*
X19150Y-16549D01*
X19058Y-16587D01*
X18988Y-16658D01*
X18950Y-16750D01*
X18949Y-16849D01*
X18949Y-17449D01*
X18987Y-17541D01*
X19058Y-17611D01*
X19150Y-17649D01*
X19249Y-17650D01*
X19849Y-17650D01*
X19941Y-17612D01*
X20011Y-17541D01*
X20049Y-17449D01*
X20050Y-17350D01*
X20050Y-18299D01*
X17000Y-18299D01*
X16908Y-18337D01*
X16838Y-18408D01*
X16800Y-18500D01*
X16799Y-18599D01*
X16799Y-22099D01*
X16837Y-22191D01*
X16908Y-22261D01*
X17000Y-22299D01*
X17099Y-22300D01*
X20599Y-22300D01*
X20691Y-22262D01*
X20761Y-22191D01*
X20799Y-22099D01*
X20800Y-22000D01*
X20800Y-23130D01*
X16069Y-23130D01*
X16069Y-20544D01*
X16149Y-9369D01*
X16200Y-9369D01*
X43850Y-9369D01*
X43850Y-9400D01*
X43850Y-23130D01*
X43850Y-23130D01*
G37*
G54D22*
X43850Y-23130D02*
X43500Y-23130D01*
X43500Y-21900D01*
X43500Y-18400D01*
X43462Y-18308D01*
X43391Y-18238D01*
X43299Y-18200D01*
X43200Y-18199D01*
X41846Y-18199D01*
X41846Y-14613D01*
X41846Y-13986D01*
X41804Y-13777D01*
X41686Y-13600D01*
X41509Y-13481D01*
X41300Y-13439D01*
X41090Y-13481D01*
X40913Y-13600D01*
X40800Y-13770D01*
X40686Y-13600D01*
X40509Y-13481D01*
X40300Y-13439D01*
X40090Y-13481D01*
X39913Y-13600D01*
X39795Y-13777D01*
X39753Y-13986D01*
X39753Y-14613D01*
X39795Y-14822D01*
X39913Y-14999D01*
X40090Y-15118D01*
X40300Y-15160D01*
X40509Y-15118D01*
X40686Y-14999D01*
X40800Y-14829D01*
X40913Y-14999D01*
X41000Y-15057D01*
X41000Y-15075D01*
X40275Y-15800D01*
X37857Y-15800D01*
X37890Y-15786D01*
X38085Y-15591D01*
X38190Y-15338D01*
X38191Y-15063D01*
X38086Y-14809D01*
X37891Y-14614D01*
X37638Y-14509D01*
X37363Y-14508D01*
X37195Y-14578D01*
X37195Y-11315D01*
X37186Y-11040D01*
X37097Y-10827D01*
X36987Y-10782D01*
X36917Y-10853D01*
X36917Y-10712D01*
X36872Y-10602D01*
X36615Y-10504D01*
X36340Y-10513D01*
X36127Y-10602D01*
X36082Y-10712D01*
X36500Y-11129D01*
X36917Y-10712D01*
X36917Y-10853D01*
X36570Y-11200D01*
X36987Y-11617D01*
X37097Y-11572D01*
X37195Y-11315D01*
X37195Y-14578D01*
X37109Y-14613D01*
X36917Y-14805D01*
X36917Y-11687D01*
X36500Y-11270D01*
X36429Y-11341D01*
X36429Y-11200D01*
X36012Y-10782D01*
X35902Y-10827D01*
X35804Y-11084D01*
X35813Y-11359D01*
X35902Y-11572D01*
X36012Y-11617D01*
X36429Y-11200D01*
X36429Y-11341D01*
X36082Y-11687D01*
X36127Y-11797D01*
X36384Y-11895D01*
X36659Y-11886D01*
X36872Y-11797D01*
X36917Y-11687D01*
X36917Y-14805D01*
X36914Y-14808D01*
X36809Y-15061D01*
X36808Y-15336D01*
X36913Y-15590D01*
X37108Y-15785D01*
X37143Y-15800D01*
X36135Y-15800D01*
X36152Y-15782D01*
X36190Y-15690D01*
X36191Y-15591D01*
X36191Y-14709D01*
X36153Y-14617D01*
X36082Y-14547D01*
X35990Y-14509D01*
X35891Y-14508D01*
X35009Y-14508D01*
X34917Y-14546D01*
X34847Y-14617D01*
X34809Y-14709D01*
X34808Y-14808D01*
X34808Y-15690D01*
X34846Y-15782D01*
X34917Y-15852D01*
X35009Y-15890D01*
X35108Y-15891D01*
X35884Y-15891D01*
X35287Y-16487D01*
X35222Y-16585D01*
X35200Y-16700D01*
X35200Y-16728D01*
X35188Y-16733D01*
X35034Y-16888D01*
X34950Y-17090D01*
X34949Y-17308D01*
X35033Y-17511D01*
X35188Y-17665D01*
X35390Y-17749D01*
X35608Y-17750D01*
X35620Y-17745D01*
X35700Y-17824D01*
X35700Y-19475D01*
X35412Y-19763D01*
X35348Y-19699D01*
X35508Y-19540D01*
X35599Y-19319D01*
X35600Y-19081D01*
X35508Y-18860D01*
X35340Y-18691D01*
X35119Y-18600D01*
X34881Y-18599D01*
X34660Y-18691D01*
X34491Y-18859D01*
X34400Y-19080D01*
X34399Y-19318D01*
X34491Y-19539D01*
X34651Y-19700D01*
X34491Y-19859D01*
X34400Y-20080D01*
X34399Y-20318D01*
X34491Y-20539D01*
X34565Y-20614D01*
X34508Y-20637D01*
X34438Y-20708D01*
X34400Y-20800D01*
X34399Y-20899D01*
X34400Y-21087D01*
X34462Y-21150D01*
X34950Y-21150D01*
X34950Y-21142D01*
X35050Y-21142D01*
X35050Y-21150D01*
X35537Y-21150D01*
X35600Y-21087D01*
X35600Y-20899D01*
X35599Y-20800D01*
X35561Y-20708D01*
X35491Y-20637D01*
X35434Y-20614D01*
X35508Y-20540D01*
X35542Y-20458D01*
X35612Y-20412D01*
X36212Y-19812D01*
X36212Y-19812D01*
X36277Y-19714D01*
X36299Y-19600D01*
X36300Y-19600D01*
X36300Y-17700D01*
X36277Y-17585D01*
X36212Y-17487D01*
X36212Y-17487D01*
X36045Y-17321D01*
X36049Y-17309D01*
X36050Y-17091D01*
X35966Y-16888D01*
X35851Y-16773D01*
X36224Y-16400D01*
X40400Y-16400D01*
X40400Y-16399D01*
X40514Y-16377D01*
X40514Y-16377D01*
X40612Y-16312D01*
X41512Y-15412D01*
X41512Y-15412D01*
X41577Y-15314D01*
X41599Y-15200D01*
X41600Y-15200D01*
X41600Y-15057D01*
X41686Y-14999D01*
X41804Y-14822D01*
X41846Y-14613D01*
X41846Y-18199D01*
X40050Y-18199D01*
X40050Y-17450D01*
X40050Y-16850D01*
X40012Y-16758D01*
X39941Y-16688D01*
X39849Y-16650D01*
X39750Y-16649D01*
X39150Y-16649D01*
X39058Y-16687D01*
X38988Y-16758D01*
X38950Y-16850D01*
X38949Y-16949D01*
X38949Y-17549D01*
X38987Y-17641D01*
X39058Y-17711D01*
X39150Y-17749D01*
X39249Y-17750D01*
X39849Y-17750D01*
X39941Y-17712D01*
X40011Y-17641D01*
X40049Y-17549D01*
X40050Y-17450D01*
X40050Y-18199D01*
X39700Y-18199D01*
X39608Y-18237D01*
X39538Y-18308D01*
X39500Y-18400D01*
X39499Y-18499D01*
X39499Y-21999D01*
X39537Y-22091D01*
X39608Y-22161D01*
X39700Y-22199D01*
X39799Y-22200D01*
X43299Y-22200D01*
X43391Y-22162D01*
X43461Y-22091D01*
X43499Y-21999D01*
X43500Y-21900D01*
X43500Y-23130D01*
X35600Y-23130D01*
X35600Y-21500D01*
X35600Y-21312D01*
X35537Y-21250D01*
X35050Y-21250D01*
X35050Y-21737D01*
X35112Y-21800D01*
X35399Y-21800D01*
X35491Y-21762D01*
X35561Y-21691D01*
X35599Y-21599D01*
X35600Y-21500D01*
X35600Y-23130D01*
X34950Y-23130D01*
X34950Y-21737D01*
X34950Y-21250D01*
X34462Y-21250D01*
X34400Y-21312D01*
X34399Y-21500D01*
X34400Y-21599D01*
X34438Y-21691D01*
X34508Y-21762D01*
X34600Y-21800D01*
X34887Y-21800D01*
X34950Y-21737D01*
X34950Y-23130D01*
X33950Y-23130D01*
X33950Y-16850D01*
X33950Y-13350D01*
X33912Y-13258D01*
X33841Y-13188D01*
X33749Y-13150D01*
X33650Y-13149D01*
X33446Y-13149D01*
X33446Y-11547D01*
X33446Y-11250D01*
X33446Y-11150D01*
X33446Y-10853D01*
X33385Y-10647D01*
X33251Y-10481D01*
X33062Y-10378D01*
X33034Y-10373D01*
X32950Y-10421D01*
X32950Y-11150D01*
X33446Y-11150D01*
X33446Y-11250D01*
X32950Y-11250D01*
X32950Y-11978D01*
X33034Y-12026D01*
X33062Y-12021D01*
X33251Y-11918D01*
X33385Y-11752D01*
X33446Y-11547D01*
X33446Y-13149D01*
X32850Y-13149D01*
X32850Y-11978D01*
X32850Y-11250D01*
X32842Y-11250D01*
X32842Y-11150D01*
X32850Y-11150D01*
X32850Y-10421D01*
X32765Y-10373D01*
X32737Y-10378D01*
X32548Y-10481D01*
X32414Y-10647D01*
X32405Y-10678D01*
X32404Y-10677D01*
X32286Y-10500D01*
X32109Y-10381D01*
X31900Y-10339D01*
X31690Y-10381D01*
X31513Y-10500D01*
X31395Y-10677D01*
X31353Y-10886D01*
X31353Y-11513D01*
X31395Y-11722D01*
X31513Y-11899D01*
X31690Y-12018D01*
X31900Y-12060D01*
X32109Y-12018D01*
X32286Y-11899D01*
X32404Y-11722D01*
X32405Y-11721D01*
X32414Y-11752D01*
X32548Y-11918D01*
X32737Y-12021D01*
X32765Y-12026D01*
X32850Y-11978D01*
X32850Y-13149D01*
X30150Y-13149D01*
X30058Y-13187D01*
X29988Y-13258D01*
X29950Y-13350D01*
X29949Y-13449D01*
X29949Y-16949D01*
X29987Y-17041D01*
X30058Y-17111D01*
X30150Y-17149D01*
X30249Y-17150D01*
X33749Y-17150D01*
X33841Y-17112D01*
X33911Y-17041D01*
X33949Y-16949D01*
X33950Y-16850D01*
X33950Y-23130D01*
X33846Y-23130D01*
X33846Y-19813D01*
X33846Y-19186D01*
X33804Y-18977D01*
X33686Y-18800D01*
X33509Y-18681D01*
X33300Y-18639D01*
X33090Y-18681D01*
X32913Y-18800D01*
X32800Y-18970D01*
X32686Y-18800D01*
X32509Y-18681D01*
X32300Y-18639D01*
X32090Y-18681D01*
X31913Y-18800D01*
X31795Y-18977D01*
X31794Y-18978D01*
X31785Y-18947D01*
X31651Y-18781D01*
X31462Y-18678D01*
X31434Y-18673D01*
X31350Y-18721D01*
X31350Y-19450D01*
X31357Y-19450D01*
X31357Y-19550D01*
X31350Y-19550D01*
X31350Y-20278D01*
X31434Y-20326D01*
X31462Y-20321D01*
X31651Y-20218D01*
X31785Y-20052D01*
X31794Y-20021D01*
X31795Y-20022D01*
X31913Y-20199D01*
X32090Y-20318D01*
X32300Y-20360D01*
X32509Y-20318D01*
X32686Y-20199D01*
X32800Y-20029D01*
X32913Y-20199D01*
X33090Y-20318D01*
X33300Y-20360D01*
X33509Y-20318D01*
X33686Y-20199D01*
X33804Y-20022D01*
X33846Y-19813D01*
X33846Y-23130D01*
X31250Y-23130D01*
X31250Y-20278D01*
X31250Y-19550D01*
X31250Y-19450D01*
X31250Y-18721D01*
X31165Y-18673D01*
X31137Y-18678D01*
X30948Y-18781D01*
X30814Y-18947D01*
X30753Y-19153D01*
X30753Y-19450D01*
X31250Y-19450D01*
X31250Y-19550D01*
X30753Y-19550D01*
X30753Y-19847D01*
X30814Y-20052D01*
X30948Y-20218D01*
X31137Y-20321D01*
X31165Y-20326D01*
X31250Y-20278D01*
X31250Y-23130D01*
X29846Y-23130D01*
X29846Y-19813D01*
X29846Y-19186D01*
X29804Y-18977D01*
X29700Y-18820D01*
X29700Y-11081D01*
X29608Y-10860D01*
X29440Y-10691D01*
X29219Y-10600D01*
X28981Y-10599D01*
X28760Y-10691D01*
X28591Y-10859D01*
X28500Y-11080D01*
X28499Y-11318D01*
X28591Y-11539D01*
X28759Y-11708D01*
X28980Y-11799D01*
X29218Y-11800D01*
X29439Y-11708D01*
X29608Y-11540D01*
X29699Y-11319D01*
X29700Y-11081D01*
X29700Y-18820D01*
X29686Y-18800D01*
X29509Y-18681D01*
X29300Y-18639D01*
X29090Y-18681D01*
X28913Y-18800D01*
X28800Y-18970D01*
X28686Y-18800D01*
X28509Y-18681D01*
X28300Y-18639D01*
X28090Y-18681D01*
X27913Y-18800D01*
X27795Y-18977D01*
X27794Y-18978D01*
X27785Y-18947D01*
X27651Y-18781D01*
X27462Y-18678D01*
X27434Y-18673D01*
X27350Y-18721D01*
X27350Y-19450D01*
X27357Y-19450D01*
X27357Y-19550D01*
X27350Y-19550D01*
X27350Y-20278D01*
X27434Y-20326D01*
X27462Y-20321D01*
X27651Y-20218D01*
X27785Y-20052D01*
X27794Y-20021D01*
X27795Y-20022D01*
X27913Y-20199D01*
X28090Y-20318D01*
X28300Y-20360D01*
X28509Y-20318D01*
X28686Y-20199D01*
X28800Y-20029D01*
X28913Y-20199D01*
X29090Y-20318D01*
X29300Y-20360D01*
X29509Y-20318D01*
X29686Y-20199D01*
X29804Y-20022D01*
X29846Y-19813D01*
X29846Y-23130D01*
X27250Y-23130D01*
X27250Y-20278D01*
X27250Y-19550D01*
X27250Y-19450D01*
X27250Y-18721D01*
X27165Y-18673D01*
X27137Y-18678D01*
X26948Y-18781D01*
X26814Y-18947D01*
X26753Y-19153D01*
X26753Y-19450D01*
X27250Y-19450D01*
X27250Y-19550D01*
X26753Y-19550D01*
X26753Y-19847D01*
X26814Y-20052D01*
X26948Y-20218D01*
X27137Y-20321D01*
X27165Y-20326D01*
X27250Y-20278D01*
X27250Y-23130D01*
X26700Y-23130D01*
X26700Y-11081D01*
X26608Y-10860D01*
X26440Y-10691D01*
X26219Y-10600D01*
X25981Y-10599D01*
X25760Y-10691D01*
X25591Y-10859D01*
X25500Y-11080D01*
X25499Y-11318D01*
X25591Y-11539D01*
X25759Y-11708D01*
X25980Y-11799D01*
X26218Y-11800D01*
X26439Y-11708D01*
X26608Y-11540D01*
X26699Y-11319D01*
X26700Y-11081D01*
X26700Y-23130D01*
X26050Y-23130D01*
X26050Y-16031D01*
X26050Y-14031D01*
X25958Y-13810D01*
X25790Y-13641D01*
X25569Y-13550D01*
X25331Y-13549D01*
X25110Y-13641D01*
X24941Y-13809D01*
X24850Y-14030D01*
X24849Y-14268D01*
X24941Y-14489D01*
X25015Y-14564D01*
X24958Y-14587D01*
X24888Y-14658D01*
X24850Y-14750D01*
X24849Y-14849D01*
X24850Y-15037D01*
X24912Y-15100D01*
X25400Y-15100D01*
X25400Y-15092D01*
X25500Y-15092D01*
X25500Y-15100D01*
X25987Y-15100D01*
X26050Y-15037D01*
X26050Y-14849D01*
X26049Y-14750D01*
X26011Y-14658D01*
X25941Y-14587D01*
X25884Y-14564D01*
X25958Y-14490D01*
X26049Y-14269D01*
X26050Y-14031D01*
X26050Y-16031D01*
X25958Y-15810D01*
X25884Y-15735D01*
X25941Y-15712D01*
X26011Y-15641D01*
X26049Y-15549D01*
X26050Y-15450D01*
X26050Y-15262D01*
X25987Y-15200D01*
X25500Y-15200D01*
X25500Y-15207D01*
X25400Y-15207D01*
X25400Y-15200D01*
X24912Y-15200D01*
X24850Y-15262D01*
X24849Y-15450D01*
X24850Y-15549D01*
X24888Y-15641D01*
X24958Y-15712D01*
X25015Y-15735D01*
X24941Y-15809D01*
X24850Y-16030D01*
X24849Y-16268D01*
X24941Y-16489D01*
X25109Y-16658D01*
X25330Y-16749D01*
X25568Y-16750D01*
X25789Y-16658D01*
X25958Y-16490D01*
X26049Y-16269D01*
X26050Y-16031D01*
X26050Y-23130D01*
X25900Y-23130D01*
X25900Y-21181D01*
X25808Y-20960D01*
X25648Y-20799D01*
X25808Y-20640D01*
X25899Y-20419D01*
X25900Y-20181D01*
X25808Y-19960D01*
X25734Y-19885D01*
X25791Y-19862D01*
X25861Y-19791D01*
X25899Y-19699D01*
X25900Y-19600D01*
X25900Y-18999D01*
X25899Y-18900D01*
X25861Y-18808D01*
X25791Y-18737D01*
X25699Y-18699D01*
X25412Y-18700D01*
X25350Y-18762D01*
X25350Y-19250D01*
X25837Y-19250D01*
X25900Y-19187D01*
X25900Y-18999D01*
X25900Y-19600D01*
X25900Y-19412D01*
X25837Y-19350D01*
X25350Y-19350D01*
X25350Y-19357D01*
X25250Y-19357D01*
X25250Y-19350D01*
X25250Y-19250D01*
X25250Y-18762D01*
X25187Y-18700D01*
X24900Y-18699D01*
X24808Y-18737D01*
X24738Y-18808D01*
X24700Y-18900D01*
X24699Y-18999D01*
X24700Y-19187D01*
X24762Y-19250D01*
X25250Y-19250D01*
X25250Y-19350D01*
X24762Y-19350D01*
X24700Y-19412D01*
X24699Y-19600D01*
X24700Y-19699D01*
X24738Y-19791D01*
X24808Y-19862D01*
X24865Y-19885D01*
X24791Y-19959D01*
X24774Y-20000D01*
X24224Y-20000D01*
X23800Y-19575D01*
X23800Y-17571D01*
X23811Y-17566D01*
X23965Y-17411D01*
X24049Y-17209D01*
X24050Y-16991D01*
X23966Y-16788D01*
X23811Y-16634D01*
X23800Y-16629D01*
X23800Y-16600D01*
X23777Y-16485D01*
X23712Y-16387D01*
X23712Y-16387D01*
X23281Y-15957D01*
X23361Y-15990D01*
X23636Y-15991D01*
X23890Y-15886D01*
X24085Y-15691D01*
X24190Y-15438D01*
X24191Y-15163D01*
X24086Y-14909D01*
X23891Y-14714D01*
X23638Y-14609D01*
X23363Y-14608D01*
X23195Y-14678D01*
X23195Y-11415D01*
X23186Y-11140D01*
X23097Y-10927D01*
X22987Y-10882D01*
X22917Y-10953D01*
X22917Y-10812D01*
X22872Y-10702D01*
X22615Y-10604D01*
X22340Y-10613D01*
X22127Y-10702D01*
X22082Y-10812D01*
X22500Y-11229D01*
X22917Y-10812D01*
X22917Y-10953D01*
X22570Y-11300D01*
X22987Y-11717D01*
X23097Y-11672D01*
X23195Y-11415D01*
X23195Y-14678D01*
X23109Y-14713D01*
X22917Y-14905D01*
X22917Y-11787D01*
X22500Y-11370D01*
X22429Y-11441D01*
X22429Y-11300D01*
X22012Y-10882D01*
X21902Y-10927D01*
X21804Y-11184D01*
X21813Y-11459D01*
X21902Y-11672D01*
X22012Y-11717D01*
X22429Y-11300D01*
X22429Y-11441D01*
X22082Y-11787D01*
X22127Y-11897D01*
X22384Y-11995D01*
X22659Y-11986D01*
X22872Y-11897D01*
X22917Y-11787D01*
X22917Y-14905D01*
X22914Y-14908D01*
X22809Y-15161D01*
X22808Y-15436D01*
X22913Y-15690D01*
X23028Y-15805D01*
X23000Y-15800D01*
X22187Y-15800D01*
X22190Y-15790D01*
X22191Y-15691D01*
X22191Y-14809D01*
X22153Y-14717D01*
X22082Y-14647D01*
X21990Y-14609D01*
X21891Y-14608D01*
X21009Y-14608D01*
X20917Y-14646D01*
X20847Y-14717D01*
X20809Y-14809D01*
X20808Y-14908D01*
X20808Y-15790D01*
X20812Y-15800D01*
X20424Y-15800D01*
X19046Y-14422D01*
X19046Y-13986D01*
X19004Y-13777D01*
X18886Y-13600D01*
X18709Y-13481D01*
X18500Y-13439D01*
X18290Y-13481D01*
X18113Y-13600D01*
X18000Y-13770D01*
X17886Y-13600D01*
X17709Y-13481D01*
X17500Y-13439D01*
X17290Y-13481D01*
X17113Y-13600D01*
X16995Y-13777D01*
X16953Y-13986D01*
X16953Y-14613D01*
X16995Y-14822D01*
X17113Y-14999D01*
X17290Y-15118D01*
X17500Y-15160D01*
X17709Y-15118D01*
X17886Y-14999D01*
X18000Y-14829D01*
X18113Y-14999D01*
X18290Y-15118D01*
X18500Y-15160D01*
X18709Y-15118D01*
X18820Y-15044D01*
X20087Y-16312D01*
X20087Y-16312D01*
X20185Y-16377D01*
X20300Y-16400D01*
X22875Y-16400D01*
X23148Y-16673D01*
X23034Y-16788D01*
X22950Y-16990D01*
X22949Y-17208D01*
X23033Y-17411D01*
X23188Y-17565D01*
X23200Y-17570D01*
X23200Y-19700D01*
X23222Y-19814D01*
X23287Y-19912D01*
X23887Y-20512D01*
X23887Y-20512D01*
X23985Y-20577D01*
X24100Y-20600D01*
X24774Y-20600D01*
X24791Y-20639D01*
X24951Y-20800D01*
X24791Y-20959D01*
X24700Y-21180D01*
X24699Y-21418D01*
X24791Y-21639D01*
X24959Y-21808D01*
X25180Y-21899D01*
X25418Y-21900D01*
X25639Y-21808D01*
X25808Y-21640D01*
X25899Y-21419D01*
X25900Y-21181D01*
X25900Y-23130D01*
X20800Y-23130D01*
X20800Y-22000D01*
X20800Y-18500D01*
X20762Y-18408D01*
X20691Y-18338D01*
X20599Y-18300D01*
X20500Y-18299D01*
X20050Y-18299D01*
X20050Y-17350D01*
X20050Y-16750D01*
X20012Y-16658D01*
X19941Y-16588D01*
X19849Y-16550D01*
X19750Y-16549D01*
X19150Y-16549D01*
X19058Y-16587D01*
X18988Y-16658D01*
X18950Y-16750D01*
X18949Y-16849D01*
X18949Y-17449D01*
X18987Y-17541D01*
X19058Y-17611D01*
X19150Y-17649D01*
X19249Y-17650D01*
X19849Y-17650D01*
X19941Y-17612D01*
X20011Y-17541D01*
X20049Y-17449D01*
X20050Y-17350D01*
X20050Y-18299D01*
X17000Y-18299D01*
X16908Y-18337D01*
X16838Y-18408D01*
X16800Y-18500D01*
X16799Y-18599D01*
X16799Y-22099D01*
X16837Y-22191D01*
X16908Y-22261D01*
X17000Y-22299D01*
X17099Y-22300D01*
X20599Y-22300D01*
X20691Y-22262D01*
X20761Y-22191D01*
X20799Y-22099D01*
X20800Y-22000D01*
X20800Y-23130D01*
X16069Y-23130D01*
X16069Y-20544D01*
X16149Y-9369D01*
X16200Y-9369D01*
X43850Y-9369D01*
X43850Y-9400D01*
X43850Y-23130D01*
M02*
