G04 (created by PCBNEW (2013-07-07 BZR 4022)-stable) date 1/3/2014 7:24:35 AM*
%MOIN*%
G04 Gerber Fmt 3.4, Leading zero omitted, Abs format*
%FSLAX34Y34*%
G01*
G70*
G90*
G04 APERTURE LIST*
%ADD10C,0.00590551*%
%ADD11C,0.011811*%
%ADD12C,0.008*%
%ADD13C,0.003*%
%ADD14C,0.01*%
%ADD15C,0.006*%
%ADD16C,0.0035*%
%ADD17R,0.07X0.07*%
%ADD18C,0.07*%
%ADD19R,0.35X0.35*%
%ADD20C,0.055*%
%ADD21C,0.0882*%
%ADD22R,0.0882X0.0882*%
%ADD23C,0.066*%
%ADD24R,0.06X0.06*%
%ADD25C,0.06*%
G04 APERTURE END LIST*
G54D10*
G54D11*
X11234Y-22439D02*
X11515Y-22439D01*
X11515Y-21848D01*
X11037Y-22439D02*
X11037Y-22045D01*
X11037Y-21848D02*
X11065Y-21876D01*
X11037Y-21904D01*
X11009Y-21876D01*
X11037Y-21848D01*
X11037Y-21904D01*
X10756Y-22045D02*
X10756Y-22439D01*
X10756Y-22101D02*
X10727Y-22073D01*
X10671Y-22045D01*
X10587Y-22045D01*
X10531Y-22073D01*
X10502Y-22129D01*
X10502Y-22439D01*
X9996Y-22410D02*
X10052Y-22439D01*
X10165Y-22439D01*
X10221Y-22410D01*
X10249Y-22354D01*
X10249Y-22129D01*
X10221Y-22073D01*
X10165Y-22045D01*
X10052Y-22045D01*
X9996Y-22073D01*
X9968Y-22129D01*
X9968Y-22185D01*
X10249Y-22242D01*
X9715Y-22439D02*
X9715Y-21848D01*
X9715Y-22073D02*
X9659Y-22045D01*
X9546Y-22045D01*
X9490Y-22073D01*
X9462Y-22101D01*
X9434Y-22157D01*
X9434Y-22326D01*
X9462Y-22382D01*
X9490Y-22410D01*
X9546Y-22439D01*
X9659Y-22439D01*
X9715Y-22410D01*
X9096Y-22439D02*
X9153Y-22410D01*
X9181Y-22382D01*
X9209Y-22326D01*
X9209Y-22157D01*
X9181Y-22101D01*
X9153Y-22073D01*
X9096Y-22045D01*
X9012Y-22045D01*
X8956Y-22073D01*
X8928Y-22101D01*
X8899Y-22157D01*
X8899Y-22326D01*
X8928Y-22382D01*
X8956Y-22410D01*
X9012Y-22439D01*
X9096Y-22439D01*
X8731Y-22045D02*
X8506Y-22045D01*
X8646Y-21848D02*
X8646Y-22354D01*
X8618Y-22410D01*
X8562Y-22439D01*
X8506Y-22439D01*
X7915Y-22045D02*
X7775Y-22439D01*
X7634Y-22045D01*
X7100Y-22439D02*
X7437Y-22439D01*
X7268Y-22439D02*
X7268Y-21848D01*
X7325Y-21932D01*
X7381Y-21989D01*
X7437Y-22017D01*
X6847Y-22382D02*
X6819Y-22410D01*
X6847Y-22439D01*
X6875Y-22410D01*
X6847Y-22382D01*
X6847Y-22439D01*
X6453Y-21848D02*
X6397Y-21848D01*
X6340Y-21876D01*
X6312Y-21904D01*
X6284Y-21960D01*
X6256Y-22073D01*
X6256Y-22214D01*
X6284Y-22326D01*
X6312Y-22382D01*
X6340Y-22410D01*
X6397Y-22439D01*
X6453Y-22439D01*
X6509Y-22410D01*
X6537Y-22382D01*
X6565Y-22326D01*
X6594Y-22214D01*
X6594Y-22073D01*
X6565Y-21960D01*
X6537Y-21904D01*
X6509Y-21876D01*
X6453Y-21848D01*
X11234Y-11939D02*
X11515Y-11939D01*
X11515Y-11348D01*
X11037Y-11939D02*
X11037Y-11545D01*
X11037Y-11348D02*
X11065Y-11376D01*
X11037Y-11404D01*
X11009Y-11376D01*
X11037Y-11348D01*
X11037Y-11404D01*
X10756Y-11545D02*
X10756Y-11939D01*
X10756Y-11601D02*
X10727Y-11573D01*
X10671Y-11545D01*
X10587Y-11545D01*
X10531Y-11573D01*
X10502Y-11629D01*
X10502Y-11939D01*
X9996Y-11910D02*
X10052Y-11939D01*
X10165Y-11939D01*
X10221Y-11910D01*
X10249Y-11854D01*
X10249Y-11629D01*
X10221Y-11573D01*
X10165Y-11545D01*
X10052Y-11545D01*
X9996Y-11573D01*
X9968Y-11629D01*
X9968Y-11685D01*
X10249Y-11742D01*
X9715Y-11939D02*
X9715Y-11348D01*
X9715Y-11573D02*
X9659Y-11545D01*
X9546Y-11545D01*
X9490Y-11573D01*
X9462Y-11601D01*
X9434Y-11657D01*
X9434Y-11826D01*
X9462Y-11882D01*
X9490Y-11910D01*
X9546Y-11939D01*
X9659Y-11939D01*
X9715Y-11910D01*
X9096Y-11939D02*
X9153Y-11910D01*
X9181Y-11882D01*
X9209Y-11826D01*
X9209Y-11657D01*
X9181Y-11601D01*
X9153Y-11573D01*
X9096Y-11545D01*
X9012Y-11545D01*
X8956Y-11573D01*
X8928Y-11601D01*
X8899Y-11657D01*
X8899Y-11826D01*
X8928Y-11882D01*
X8956Y-11910D01*
X9012Y-11939D01*
X9096Y-11939D01*
X8731Y-11545D02*
X8506Y-11545D01*
X8646Y-11348D02*
X8646Y-11854D01*
X8618Y-11910D01*
X8562Y-11939D01*
X8506Y-11939D01*
X7915Y-11545D02*
X7775Y-11939D01*
X7634Y-11545D01*
X7100Y-11939D02*
X7437Y-11939D01*
X7268Y-11939D02*
X7268Y-11348D01*
X7325Y-11432D01*
X7381Y-11489D01*
X7437Y-11517D01*
X6847Y-11882D02*
X6819Y-11910D01*
X6847Y-11939D01*
X6875Y-11910D01*
X6847Y-11882D01*
X6847Y-11939D01*
X6453Y-11348D02*
X6397Y-11348D01*
X6340Y-11376D01*
X6312Y-11404D01*
X6284Y-11460D01*
X6256Y-11573D01*
X6256Y-11714D01*
X6284Y-11826D01*
X6312Y-11882D01*
X6340Y-11910D01*
X6397Y-11939D01*
X6453Y-11939D01*
X6509Y-11910D01*
X6537Y-11882D01*
X6565Y-11826D01*
X6594Y-11714D01*
X6594Y-11573D01*
X6565Y-11460D01*
X6537Y-11404D01*
X6509Y-11376D01*
X6453Y-11348D01*
X43078Y-10139D02*
X43359Y-10139D01*
X43359Y-9548D01*
X42881Y-10139D02*
X42881Y-9745D01*
X42881Y-9548D02*
X42909Y-9576D01*
X42881Y-9604D01*
X42853Y-9576D01*
X42881Y-9548D01*
X42881Y-9604D01*
X42600Y-9745D02*
X42600Y-10139D01*
X42600Y-9801D02*
X42571Y-9773D01*
X42515Y-9745D01*
X42431Y-9745D01*
X42375Y-9773D01*
X42347Y-9829D01*
X42347Y-10139D01*
X41840Y-10110D02*
X41897Y-10139D01*
X42009Y-10139D01*
X42065Y-10110D01*
X42093Y-10054D01*
X42093Y-9829D01*
X42065Y-9773D01*
X42009Y-9745D01*
X41897Y-9745D01*
X41840Y-9773D01*
X41812Y-9829D01*
X41812Y-9885D01*
X42093Y-9942D01*
X41559Y-10139D02*
X41559Y-9548D01*
X41559Y-9773D02*
X41503Y-9745D01*
X41390Y-9745D01*
X41334Y-9773D01*
X41306Y-9801D01*
X41278Y-9857D01*
X41278Y-10026D01*
X41306Y-10082D01*
X41334Y-10110D01*
X41390Y-10139D01*
X41503Y-10139D01*
X41559Y-10110D01*
X40940Y-10139D02*
X40997Y-10110D01*
X41025Y-10082D01*
X41053Y-10026D01*
X41053Y-9857D01*
X41025Y-9801D01*
X40997Y-9773D01*
X40940Y-9745D01*
X40856Y-9745D01*
X40800Y-9773D01*
X40772Y-9801D01*
X40744Y-9857D01*
X40744Y-10026D01*
X40772Y-10082D01*
X40800Y-10110D01*
X40856Y-10139D01*
X40940Y-10139D01*
X40575Y-9745D02*
X40350Y-9745D01*
X40491Y-9548D02*
X40491Y-10054D01*
X40462Y-10110D01*
X40406Y-10139D01*
X40350Y-10139D01*
X39506Y-9829D02*
X39422Y-9857D01*
X39394Y-9885D01*
X39366Y-9942D01*
X39366Y-10026D01*
X39394Y-10082D01*
X39422Y-10110D01*
X39478Y-10139D01*
X39703Y-10139D01*
X39703Y-9548D01*
X39506Y-9548D01*
X39450Y-9576D01*
X39422Y-9604D01*
X39394Y-9660D01*
X39394Y-9717D01*
X39422Y-9773D01*
X39450Y-9801D01*
X39506Y-9829D01*
X39703Y-9829D01*
X39113Y-10139D02*
X39113Y-9745D01*
X39113Y-9857D02*
X39084Y-9801D01*
X39056Y-9773D01*
X39000Y-9745D01*
X38944Y-9745D01*
X38494Y-10139D02*
X38494Y-9829D01*
X38522Y-9773D01*
X38578Y-9745D01*
X38691Y-9745D01*
X38747Y-9773D01*
X38494Y-10110D02*
X38550Y-10139D01*
X38691Y-10139D01*
X38747Y-10110D01*
X38775Y-10054D01*
X38775Y-9998D01*
X38747Y-9942D01*
X38691Y-9914D01*
X38550Y-9914D01*
X38494Y-9885D01*
X38213Y-10139D02*
X38213Y-9745D01*
X38213Y-9548D02*
X38241Y-9576D01*
X38213Y-9604D01*
X38185Y-9576D01*
X38213Y-9548D01*
X38213Y-9604D01*
X37931Y-9745D02*
X37931Y-10139D01*
X37931Y-9801D02*
X37903Y-9773D01*
X37847Y-9745D01*
X37763Y-9745D01*
X37706Y-9773D01*
X37678Y-9829D01*
X37678Y-10139D01*
X43415Y-10690D02*
X43275Y-11083D01*
X43134Y-10690D01*
X42600Y-11083D02*
X42937Y-11083D01*
X42768Y-11083D02*
X42768Y-10493D01*
X42825Y-10577D01*
X42881Y-10633D01*
X42937Y-10662D01*
X42347Y-11027D02*
X42318Y-11055D01*
X42347Y-11083D01*
X42375Y-11055D01*
X42347Y-11027D01*
X42347Y-11083D01*
X41953Y-10493D02*
X41897Y-10493D01*
X41840Y-10521D01*
X41812Y-10549D01*
X41784Y-10605D01*
X41756Y-10718D01*
X41756Y-10858D01*
X41784Y-10971D01*
X41812Y-11027D01*
X41840Y-11055D01*
X41897Y-11083D01*
X41953Y-11083D01*
X42009Y-11055D01*
X42037Y-11027D01*
X42065Y-10971D01*
X42093Y-10858D01*
X42093Y-10718D01*
X42065Y-10605D01*
X42037Y-10549D01*
X42009Y-10521D01*
X41953Y-10493D01*
X43162Y-11719D02*
X43078Y-11747D01*
X43050Y-11775D01*
X43021Y-11831D01*
X43021Y-11916D01*
X43050Y-11972D01*
X43078Y-12000D01*
X43134Y-12028D01*
X43359Y-12028D01*
X43359Y-11438D01*
X43162Y-11438D01*
X43106Y-11466D01*
X43078Y-11494D01*
X43050Y-11550D01*
X43050Y-11606D01*
X43078Y-11663D01*
X43106Y-11691D01*
X43162Y-11719D01*
X43359Y-11719D01*
X42825Y-11635D02*
X42684Y-12028D01*
X42543Y-11635D02*
X42684Y-12028D01*
X42740Y-12169D01*
X42768Y-12197D01*
X42825Y-12225D01*
X41868Y-12028D02*
X41868Y-11438D01*
X41531Y-12028D01*
X41531Y-11438D01*
X41250Y-12028D02*
X41250Y-11635D01*
X41250Y-11438D02*
X41278Y-11466D01*
X41250Y-11494D01*
X41222Y-11466D01*
X41250Y-11438D01*
X41250Y-11494D01*
X41053Y-11635D02*
X40828Y-11635D01*
X40969Y-11438D02*
X40969Y-11944D01*
X40940Y-12000D01*
X40884Y-12028D01*
X40828Y-12028D01*
X40406Y-12000D02*
X40462Y-12028D01*
X40575Y-12028D01*
X40631Y-12000D01*
X40659Y-11944D01*
X40659Y-11719D01*
X40631Y-11663D01*
X40575Y-11635D01*
X40462Y-11635D01*
X40406Y-11663D01*
X40378Y-11719D01*
X40378Y-11775D01*
X40659Y-11831D01*
X40125Y-12028D02*
X40125Y-11438D01*
X39872Y-12028D02*
X39872Y-11719D01*
X39900Y-11663D01*
X39956Y-11635D01*
X40041Y-11635D01*
X40097Y-11663D01*
X40125Y-11691D01*
X39338Y-12028D02*
X39338Y-11719D01*
X39366Y-11663D01*
X39422Y-11635D01*
X39534Y-11635D01*
X39591Y-11663D01*
X39338Y-12000D02*
X39394Y-12028D01*
X39534Y-12028D01*
X39591Y-12000D01*
X39619Y-11944D01*
X39619Y-11888D01*
X39591Y-11831D01*
X39534Y-11803D01*
X39394Y-11803D01*
X39338Y-11775D01*
X39113Y-11635D02*
X39000Y-12028D01*
X38888Y-11747D01*
X38775Y-12028D01*
X38663Y-11635D01*
X38438Y-12028D02*
X38438Y-11438D01*
X38381Y-11803D02*
X38213Y-12028D01*
X38213Y-11635D02*
X38438Y-11860D01*
X43162Y-12664D02*
X43078Y-12692D01*
X43050Y-12720D01*
X43021Y-12776D01*
X43021Y-12861D01*
X43050Y-12917D01*
X43078Y-12945D01*
X43134Y-12973D01*
X43359Y-12973D01*
X43359Y-12383D01*
X43162Y-12383D01*
X43106Y-12411D01*
X43078Y-12439D01*
X43050Y-12495D01*
X43050Y-12551D01*
X43078Y-12608D01*
X43106Y-12636D01*
X43162Y-12664D01*
X43359Y-12664D01*
X42515Y-12973D02*
X42515Y-12664D01*
X42543Y-12608D01*
X42600Y-12579D01*
X42712Y-12579D01*
X42768Y-12608D01*
X42515Y-12945D02*
X42571Y-12973D01*
X42712Y-12973D01*
X42768Y-12945D01*
X42796Y-12889D01*
X42796Y-12833D01*
X42768Y-12776D01*
X42712Y-12748D01*
X42571Y-12748D01*
X42515Y-12720D01*
X42262Y-12945D02*
X42206Y-12973D01*
X42093Y-12973D01*
X42037Y-12945D01*
X42009Y-12889D01*
X42009Y-12861D01*
X42037Y-12804D01*
X42093Y-12776D01*
X42178Y-12776D01*
X42234Y-12748D01*
X42262Y-12692D01*
X42262Y-12664D01*
X42234Y-12608D01*
X42178Y-12579D01*
X42093Y-12579D01*
X42037Y-12608D01*
X41531Y-12945D02*
X41587Y-12973D01*
X41700Y-12973D01*
X41756Y-12945D01*
X41784Y-12889D01*
X41784Y-12664D01*
X41756Y-12608D01*
X41700Y-12579D01*
X41587Y-12579D01*
X41531Y-12608D01*
X41503Y-12664D01*
X41503Y-12720D01*
X41784Y-12776D01*
X40997Y-12973D02*
X40997Y-12383D01*
X40997Y-12945D02*
X41053Y-12973D01*
X41165Y-12973D01*
X41222Y-12945D01*
X41250Y-12917D01*
X41278Y-12861D01*
X41278Y-12692D01*
X41250Y-12636D01*
X41222Y-12608D01*
X41165Y-12579D01*
X41053Y-12579D01*
X40997Y-12608D01*
X40181Y-12973D02*
X40237Y-12945D01*
X40266Y-12917D01*
X40294Y-12861D01*
X40294Y-12692D01*
X40266Y-12636D01*
X40237Y-12608D01*
X40181Y-12579D01*
X40097Y-12579D01*
X40041Y-12608D01*
X40012Y-12636D01*
X39984Y-12692D01*
X39984Y-12861D01*
X40012Y-12917D01*
X40041Y-12945D01*
X40097Y-12973D01*
X40181Y-12973D01*
X39731Y-12579D02*
X39731Y-12973D01*
X39731Y-12636D02*
X39703Y-12608D01*
X39647Y-12579D01*
X39562Y-12579D01*
X39506Y-12608D01*
X39478Y-12664D01*
X39478Y-12973D01*
X38747Y-12579D02*
X38747Y-13170D01*
X38747Y-12608D02*
X38691Y-12579D01*
X38578Y-12579D01*
X38522Y-12608D01*
X38494Y-12636D01*
X38466Y-12692D01*
X38466Y-12861D01*
X38494Y-12917D01*
X38522Y-12945D01*
X38578Y-12973D01*
X38691Y-12973D01*
X38747Y-12945D01*
X38128Y-12973D02*
X38185Y-12945D01*
X38213Y-12889D01*
X38213Y-12383D01*
X37650Y-12973D02*
X37650Y-12664D01*
X37678Y-12608D01*
X37735Y-12579D01*
X37847Y-12579D01*
X37903Y-12608D01*
X37650Y-12945D02*
X37706Y-12973D01*
X37847Y-12973D01*
X37903Y-12945D01*
X37931Y-12889D01*
X37931Y-12833D01*
X37903Y-12776D01*
X37847Y-12748D01*
X37706Y-12748D01*
X37650Y-12720D01*
X37425Y-12579D02*
X37285Y-12973D01*
X37144Y-12579D02*
X37285Y-12973D01*
X37341Y-13114D01*
X37369Y-13142D01*
X37425Y-13170D01*
X36975Y-12579D02*
X36863Y-12973D01*
X36750Y-12692D01*
X36638Y-12973D01*
X36525Y-12579D01*
X36300Y-12973D02*
X36300Y-12579D01*
X36300Y-12383D02*
X36329Y-12411D01*
X36300Y-12439D01*
X36272Y-12411D01*
X36300Y-12383D01*
X36300Y-12439D01*
X36104Y-12579D02*
X35879Y-12579D01*
X36019Y-12383D02*
X36019Y-12889D01*
X35991Y-12945D01*
X35935Y-12973D01*
X35879Y-12973D01*
X35682Y-12973D02*
X35682Y-12383D01*
X35429Y-12973D02*
X35429Y-12664D01*
X35457Y-12608D01*
X35513Y-12579D01*
X35597Y-12579D01*
X35654Y-12608D01*
X35682Y-12636D01*
X35147Y-12973D02*
X35147Y-12579D01*
X35147Y-12692D02*
X35119Y-12636D01*
X35091Y-12608D01*
X35035Y-12579D01*
X34979Y-12579D01*
X34697Y-12973D02*
X34754Y-12945D01*
X34782Y-12917D01*
X34810Y-12861D01*
X34810Y-12692D01*
X34782Y-12636D01*
X34754Y-12608D01*
X34697Y-12579D01*
X34613Y-12579D01*
X34557Y-12608D01*
X34529Y-12636D01*
X34501Y-12692D01*
X34501Y-12861D01*
X34529Y-12917D01*
X34557Y-12945D01*
X34613Y-12973D01*
X34697Y-12973D01*
X34248Y-12973D02*
X34248Y-12383D01*
X34248Y-12608D02*
X34191Y-12579D01*
X34079Y-12579D01*
X34023Y-12608D01*
X33994Y-12636D01*
X33966Y-12692D01*
X33966Y-12861D01*
X33994Y-12917D01*
X34023Y-12945D01*
X34079Y-12973D01*
X34191Y-12973D01*
X34248Y-12945D01*
X33629Y-12973D02*
X33685Y-12945D01*
X33713Y-12917D01*
X33741Y-12861D01*
X33741Y-12692D01*
X33713Y-12636D01*
X33685Y-12608D01*
X33629Y-12579D01*
X33544Y-12579D01*
X33488Y-12608D01*
X33460Y-12636D01*
X33432Y-12692D01*
X33432Y-12861D01*
X33460Y-12917D01*
X33488Y-12945D01*
X33544Y-12973D01*
X33629Y-12973D01*
X33263Y-12579D02*
X33038Y-12579D01*
X33179Y-12383D02*
X33179Y-12889D01*
X33151Y-12945D01*
X33095Y-12973D01*
X33038Y-12973D01*
X32870Y-12945D02*
X32813Y-12973D01*
X32701Y-12973D01*
X32645Y-12945D01*
X32616Y-12889D01*
X32616Y-12861D01*
X32645Y-12804D01*
X32701Y-12776D01*
X32785Y-12776D01*
X32841Y-12748D01*
X32870Y-12692D01*
X32870Y-12664D01*
X32841Y-12608D01*
X32785Y-12579D01*
X32701Y-12579D01*
X32645Y-12608D01*
X32363Y-12917D02*
X32335Y-12945D01*
X32363Y-12973D01*
X32392Y-12945D01*
X32363Y-12917D01*
X32363Y-12973D01*
X31829Y-12945D02*
X31885Y-12973D01*
X31998Y-12973D01*
X32054Y-12945D01*
X32082Y-12917D01*
X32110Y-12861D01*
X32110Y-12692D01*
X32082Y-12636D01*
X32054Y-12608D01*
X31998Y-12579D01*
X31885Y-12579D01*
X31829Y-12608D01*
X31492Y-12973D02*
X31548Y-12945D01*
X31576Y-12917D01*
X31604Y-12861D01*
X31604Y-12692D01*
X31576Y-12636D01*
X31548Y-12608D01*
X31492Y-12579D01*
X31407Y-12579D01*
X31351Y-12608D01*
X31323Y-12636D01*
X31295Y-12692D01*
X31295Y-12861D01*
X31323Y-12917D01*
X31351Y-12945D01*
X31407Y-12973D01*
X31492Y-12973D01*
X31042Y-12973D02*
X31042Y-12579D01*
X31042Y-12636D02*
X31014Y-12608D01*
X30957Y-12579D01*
X30873Y-12579D01*
X30817Y-12608D01*
X30789Y-12664D01*
X30789Y-12973D01*
X30789Y-12664D02*
X30760Y-12608D01*
X30704Y-12579D01*
X30620Y-12579D01*
X30564Y-12608D01*
X30535Y-12664D01*
X30535Y-12973D01*
G54D12*
X11380Y-24750D02*
X11380Y-23250D01*
G54D13*
X13107Y-24000D02*
G75*
G03X13107Y-24000I-707J0D01*
G74*
G01*
G54D14*
X11400Y-23249D02*
G75*
G02X11400Y-24750I999J-750D01*
G74*
G01*
G54D15*
X12400Y-23550D02*
G75*
G02X12850Y-24000I0J-450D01*
G74*
G01*
X12400Y-24450D02*
G75*
G02X11950Y-24000I0J450D01*
G74*
G01*
X12400Y-23350D02*
G75*
G02X13050Y-24000I0J-650D01*
G74*
G01*
X12400Y-24650D02*
G75*
G02X11750Y-24000I0J650D01*
G74*
G01*
X12400Y-23150D02*
G75*
G02X13250Y-24000I0J-850D01*
G74*
G01*
X12400Y-24850D02*
G75*
G02X11550Y-24000I0J850D01*
G74*
G01*
G54D12*
X11380Y-10750D02*
X11380Y-9250D01*
G54D13*
X13107Y-10000D02*
G75*
G03X13107Y-10000I-707J0D01*
G74*
G01*
G54D14*
X11400Y-9249D02*
G75*
G02X11400Y-10750I999J-750D01*
G74*
G01*
G54D15*
X12400Y-9550D02*
G75*
G02X12850Y-10000I0J-450D01*
G74*
G01*
X12400Y-10450D02*
G75*
G02X11950Y-10000I0J450D01*
G74*
G01*
X12400Y-9350D02*
G75*
G02X13050Y-10000I0J-650D01*
G74*
G01*
X12400Y-10650D02*
G75*
G02X11750Y-10000I0J650D01*
G74*
G01*
X12400Y-9150D02*
G75*
G02X13250Y-10000I0J-850D01*
G74*
G01*
X12400Y-10850D02*
G75*
G02X11550Y-10000I0J850D01*
G74*
G01*
G54D12*
X11380Y-21250D02*
X11380Y-19750D01*
G54D13*
X13107Y-20500D02*
G75*
G03X13107Y-20500I-707J0D01*
G74*
G01*
G54D14*
X11400Y-19749D02*
G75*
G02X11400Y-21250I999J-750D01*
G74*
G01*
G54D15*
X12400Y-20050D02*
G75*
G02X12850Y-20500I0J-450D01*
G74*
G01*
X12400Y-20950D02*
G75*
G02X11950Y-20500I0J450D01*
G74*
G01*
X12400Y-19850D02*
G75*
G02X13050Y-20500I0J-650D01*
G74*
G01*
X12400Y-21150D02*
G75*
G02X11750Y-20500I0J650D01*
G74*
G01*
X12400Y-19650D02*
G75*
G02X13250Y-20500I0J-850D01*
G74*
G01*
X12400Y-21350D02*
G75*
G02X11550Y-20500I0J850D01*
G74*
G01*
G54D12*
X11380Y-14250D02*
X11380Y-12750D01*
G54D13*
X13107Y-13500D02*
G75*
G03X13107Y-13500I-707J0D01*
G74*
G01*
G54D14*
X11400Y-12749D02*
G75*
G02X11400Y-14250I999J-750D01*
G74*
G01*
G54D15*
X12400Y-13050D02*
G75*
G02X12850Y-13500I0J-450D01*
G74*
G01*
X12400Y-13950D02*
G75*
G02X11950Y-13500I0J450D01*
G74*
G01*
X12400Y-12850D02*
G75*
G02X13050Y-13500I0J-650D01*
G74*
G01*
X12400Y-14150D02*
G75*
G02X11750Y-13500I0J650D01*
G74*
G01*
X12400Y-12650D02*
G75*
G02X13250Y-13500I0J-850D01*
G74*
G01*
X12400Y-14350D02*
G75*
G02X11550Y-13500I0J850D01*
G74*
G01*
G54D16*
X12728Y-22321D02*
X12728Y-22564D01*
X12714Y-22592D01*
X12700Y-22607D01*
X12671Y-22621D01*
X12614Y-22621D01*
X12585Y-22607D01*
X12571Y-22592D01*
X12557Y-22564D01*
X12557Y-22321D01*
X12428Y-22350D02*
X12414Y-22335D01*
X12385Y-22321D01*
X12314Y-22321D01*
X12285Y-22335D01*
X12271Y-22350D01*
X12257Y-22378D01*
X12257Y-22407D01*
X12271Y-22450D01*
X12442Y-22621D01*
X12257Y-22621D01*
X12800Y-25621D02*
X12800Y-25321D01*
X12485Y-25621D02*
X12585Y-25478D01*
X12657Y-25621D02*
X12657Y-25321D01*
X12542Y-25321D01*
X12514Y-25335D01*
X12500Y-25350D01*
X12485Y-25378D01*
X12485Y-25421D01*
X12500Y-25450D01*
X12514Y-25464D01*
X12542Y-25478D01*
X12657Y-25478D01*
X12128Y-25421D02*
X12128Y-25721D01*
X12128Y-25435D02*
X12100Y-25421D01*
X12042Y-25421D01*
X12014Y-25435D01*
X12000Y-25450D01*
X11985Y-25478D01*
X11985Y-25564D01*
X12000Y-25592D01*
X12014Y-25607D01*
X12042Y-25621D01*
X12100Y-25621D01*
X12128Y-25607D01*
X11857Y-25621D02*
X11857Y-25321D01*
X11728Y-25621D02*
X11728Y-25464D01*
X11742Y-25435D01*
X11771Y-25421D01*
X11814Y-25421D01*
X11842Y-25435D01*
X11857Y-25450D01*
X11542Y-25621D02*
X11571Y-25607D01*
X11585Y-25592D01*
X11600Y-25564D01*
X11600Y-25478D01*
X11585Y-25450D01*
X11571Y-25435D01*
X11542Y-25421D01*
X11500Y-25421D01*
X11471Y-25435D01*
X11457Y-25450D01*
X11442Y-25478D01*
X11442Y-25564D01*
X11457Y-25592D01*
X11471Y-25607D01*
X11500Y-25621D01*
X11542Y-25621D01*
X11357Y-25421D02*
X11242Y-25421D01*
X11314Y-25321D02*
X11314Y-25578D01*
X11300Y-25607D01*
X11271Y-25621D01*
X11242Y-25621D01*
X11100Y-25621D02*
X11128Y-25607D01*
X11142Y-25592D01*
X11157Y-25564D01*
X11157Y-25478D01*
X11142Y-25450D01*
X11128Y-25435D01*
X11100Y-25421D01*
X11057Y-25421D01*
X11028Y-25435D01*
X11014Y-25450D01*
X11000Y-25478D01*
X11000Y-25564D01*
X11014Y-25592D01*
X11028Y-25607D01*
X11057Y-25621D01*
X11100Y-25621D01*
X10742Y-25621D02*
X10742Y-25321D01*
X10742Y-25607D02*
X10771Y-25621D01*
X10828Y-25621D01*
X10857Y-25607D01*
X10871Y-25592D01*
X10885Y-25564D01*
X10885Y-25478D01*
X10871Y-25450D01*
X10857Y-25435D01*
X10828Y-25421D01*
X10771Y-25421D01*
X10742Y-25435D01*
X10599Y-25621D02*
X10599Y-25421D01*
X10599Y-25321D02*
X10614Y-25335D01*
X10599Y-25350D01*
X10585Y-25335D01*
X10599Y-25321D01*
X10599Y-25350D01*
X10414Y-25621D02*
X10442Y-25607D01*
X10457Y-25592D01*
X10471Y-25564D01*
X10471Y-25478D01*
X10457Y-25450D01*
X10442Y-25435D01*
X10414Y-25421D01*
X10371Y-25421D01*
X10342Y-25435D01*
X10328Y-25450D01*
X10314Y-25478D01*
X10314Y-25564D01*
X10328Y-25592D01*
X10342Y-25607D01*
X10371Y-25621D01*
X10414Y-25621D01*
X10057Y-25621D02*
X10057Y-25321D01*
X10057Y-25607D02*
X10085Y-25621D01*
X10142Y-25621D01*
X10171Y-25607D01*
X10185Y-25592D01*
X10199Y-25564D01*
X10199Y-25478D01*
X10185Y-25450D01*
X10171Y-25435D01*
X10142Y-25421D01*
X10085Y-25421D01*
X10057Y-25435D01*
X9799Y-25607D02*
X9828Y-25621D01*
X9885Y-25621D01*
X9914Y-25607D01*
X9928Y-25578D01*
X9928Y-25464D01*
X9914Y-25435D01*
X9885Y-25421D01*
X9828Y-25421D01*
X9799Y-25435D01*
X9785Y-25464D01*
X9785Y-25492D01*
X9928Y-25521D01*
X12721Y-8621D02*
X12721Y-8321D01*
X12650Y-8321D01*
X12607Y-8335D01*
X12578Y-8364D01*
X12564Y-8392D01*
X12550Y-8450D01*
X12550Y-8492D01*
X12564Y-8550D01*
X12578Y-8578D01*
X12607Y-8607D01*
X12650Y-8621D01*
X12721Y-8621D01*
X12264Y-8621D02*
X12435Y-8621D01*
X12350Y-8621D02*
X12350Y-8321D01*
X12378Y-8364D01*
X12407Y-8392D01*
X12435Y-8407D01*
X13171Y-11621D02*
X13171Y-11321D01*
X12857Y-11621D02*
X12957Y-11478D01*
X13028Y-11621D02*
X13028Y-11321D01*
X12914Y-11321D01*
X12885Y-11335D01*
X12871Y-11350D01*
X12857Y-11378D01*
X12857Y-11421D01*
X12871Y-11450D01*
X12885Y-11464D01*
X12914Y-11478D01*
X13028Y-11478D01*
X12357Y-11621D02*
X12500Y-11621D01*
X12500Y-11321D01*
X12257Y-11464D02*
X12157Y-11464D01*
X12114Y-11621D02*
X12257Y-11621D01*
X12257Y-11321D01*
X12114Y-11321D01*
X11985Y-11621D02*
X11985Y-11321D01*
X11914Y-11321D01*
X11871Y-11335D01*
X11842Y-11364D01*
X11828Y-11392D01*
X11814Y-11450D01*
X11814Y-11492D01*
X11828Y-11550D01*
X11842Y-11578D01*
X11871Y-11607D01*
X11914Y-11621D01*
X11985Y-11621D01*
X12721Y-19121D02*
X12721Y-18821D01*
X12650Y-18821D01*
X12607Y-18835D01*
X12578Y-18864D01*
X12564Y-18892D01*
X12550Y-18950D01*
X12550Y-18992D01*
X12564Y-19050D01*
X12578Y-19078D01*
X12607Y-19107D01*
X12650Y-19121D01*
X12721Y-19121D01*
X12435Y-18850D02*
X12421Y-18835D01*
X12392Y-18821D01*
X12321Y-18821D01*
X12292Y-18835D01*
X12278Y-18850D01*
X12264Y-18878D01*
X12264Y-18907D01*
X12278Y-18950D01*
X12450Y-19121D01*
X12264Y-19121D01*
X13171Y-22121D02*
X13171Y-21821D01*
X12857Y-22121D02*
X12957Y-21978D01*
X13028Y-22121D02*
X13028Y-21821D01*
X12914Y-21821D01*
X12885Y-21835D01*
X12871Y-21850D01*
X12857Y-21878D01*
X12857Y-21921D01*
X12871Y-21950D01*
X12885Y-21964D01*
X12914Y-21978D01*
X13028Y-21978D01*
X12357Y-22121D02*
X12500Y-22121D01*
X12500Y-21821D01*
X12257Y-21964D02*
X12157Y-21964D01*
X12114Y-22121D02*
X12257Y-22121D01*
X12257Y-21821D01*
X12114Y-21821D01*
X11985Y-22121D02*
X11985Y-21821D01*
X11914Y-21821D01*
X11871Y-21835D01*
X11842Y-21864D01*
X11828Y-21892D01*
X11814Y-21950D01*
X11814Y-21992D01*
X11828Y-22050D01*
X11842Y-22078D01*
X11871Y-22107D01*
X11914Y-22121D01*
X11985Y-22121D01*
X12728Y-11821D02*
X12728Y-12064D01*
X12714Y-12092D01*
X12700Y-12107D01*
X12671Y-12121D01*
X12614Y-12121D01*
X12585Y-12107D01*
X12571Y-12092D01*
X12557Y-12064D01*
X12557Y-11821D01*
X12257Y-12121D02*
X12428Y-12121D01*
X12342Y-12121D02*
X12342Y-11821D01*
X12371Y-11864D01*
X12400Y-11892D01*
X12428Y-11907D01*
X13214Y-15121D02*
X13214Y-14821D01*
X12900Y-15121D02*
X13000Y-14978D01*
X13071Y-15121D02*
X13071Y-14821D01*
X12957Y-14821D01*
X12928Y-14835D01*
X12914Y-14850D01*
X12900Y-14878D01*
X12900Y-14921D01*
X12914Y-14950D01*
X12928Y-14964D01*
X12957Y-14978D01*
X13071Y-14978D01*
X12542Y-15121D02*
X12542Y-14821D01*
X12428Y-14821D01*
X12400Y-14835D01*
X12385Y-14850D01*
X12371Y-14878D01*
X12371Y-14921D01*
X12385Y-14950D01*
X12400Y-14964D01*
X12428Y-14978D01*
X12542Y-14978D01*
X12242Y-15121D02*
X12242Y-14821D01*
X12114Y-15121D02*
X12114Y-14964D01*
X12128Y-14935D01*
X12157Y-14921D01*
X12200Y-14921D01*
X12228Y-14935D01*
X12242Y-14950D01*
X11928Y-15121D02*
X11957Y-15107D01*
X11971Y-15092D01*
X11985Y-15064D01*
X11985Y-14978D01*
X11971Y-14950D01*
X11957Y-14935D01*
X11928Y-14921D01*
X11885Y-14921D01*
X11857Y-14935D01*
X11842Y-14950D01*
X11828Y-14978D01*
X11828Y-15064D01*
X11842Y-15092D01*
X11857Y-15107D01*
X11885Y-15121D01*
X11928Y-15121D01*
X11742Y-14921D02*
X11628Y-14921D01*
X11700Y-14821D02*
X11700Y-15078D01*
X11685Y-15107D01*
X11657Y-15121D01*
X11628Y-15121D01*
X11485Y-15121D02*
X11514Y-15107D01*
X11528Y-15092D01*
X11542Y-15064D01*
X11542Y-14978D01*
X11528Y-14950D01*
X11514Y-14935D01*
X11485Y-14921D01*
X11442Y-14921D01*
X11414Y-14935D01*
X11400Y-14950D01*
X11385Y-14978D01*
X11385Y-15064D01*
X11400Y-15092D01*
X11414Y-15107D01*
X11442Y-15121D01*
X11485Y-15121D01*
X11128Y-15121D02*
X11128Y-14821D01*
X11128Y-15107D02*
X11157Y-15121D01*
X11214Y-15121D01*
X11242Y-15107D01*
X11257Y-15092D01*
X11271Y-15064D01*
X11271Y-14978D01*
X11257Y-14950D01*
X11242Y-14935D01*
X11214Y-14921D01*
X11157Y-14921D01*
X11128Y-14935D01*
X10985Y-15121D02*
X10985Y-14921D01*
X10985Y-14821D02*
X10999Y-14835D01*
X10985Y-14850D01*
X10971Y-14835D01*
X10985Y-14821D01*
X10985Y-14850D01*
X10799Y-15121D02*
X10828Y-15107D01*
X10842Y-15092D01*
X10857Y-15064D01*
X10857Y-14978D01*
X10842Y-14950D01*
X10828Y-14935D01*
X10799Y-14921D01*
X10757Y-14921D01*
X10728Y-14935D01*
X10714Y-14950D01*
X10699Y-14978D01*
X10699Y-15064D01*
X10714Y-15092D01*
X10728Y-15107D01*
X10757Y-15121D01*
X10799Y-15121D01*
X10442Y-15121D02*
X10442Y-14821D01*
X10442Y-15107D02*
X10471Y-15121D01*
X10528Y-15121D01*
X10557Y-15107D01*
X10571Y-15092D01*
X10585Y-15064D01*
X10585Y-14978D01*
X10571Y-14950D01*
X10557Y-14935D01*
X10528Y-14921D01*
X10471Y-14921D01*
X10442Y-14935D01*
X10185Y-15107D02*
X10214Y-15121D01*
X10271Y-15121D01*
X10299Y-15107D01*
X10314Y-15078D01*
X10314Y-14964D01*
X10299Y-14935D01*
X10271Y-14921D01*
X10214Y-14921D01*
X10185Y-14935D01*
X10171Y-14964D01*
X10171Y-14992D01*
X10314Y-15021D01*
%LPC*%
G54D17*
X35000Y-21200D03*
G54D18*
X35000Y-19200D03*
X35000Y-20200D03*
G54D19*
X41500Y-20200D03*
G54D17*
X25300Y-19300D03*
G54D18*
X25300Y-21300D03*
X25300Y-20300D03*
G54D19*
X18800Y-20300D03*
G54D20*
X10500Y-15500D03*
X10500Y-12500D03*
X10500Y-8000D03*
X10500Y-11000D03*
X10500Y-26000D03*
X10500Y-23000D03*
X10500Y-18500D03*
X10500Y-21500D03*
G54D21*
X36500Y-11200D03*
G54D22*
X35500Y-15200D03*
G54D21*
X37500Y-15200D03*
X22500Y-11300D03*
G54D22*
X21500Y-15300D03*
G54D21*
X23500Y-15300D03*
G54D19*
X31950Y-15150D03*
G54D18*
X25450Y-14150D03*
G54D17*
X25450Y-15150D03*
G54D18*
X25450Y-16150D03*
G54D23*
X13000Y-24000D03*
X12000Y-24000D03*
X13000Y-10000D03*
X12000Y-10000D03*
X13000Y-20500D03*
X12000Y-20500D03*
X13000Y-13500D03*
X12000Y-13500D03*
G54D24*
X19500Y-17100D03*
G54D25*
X23500Y-17100D03*
G54D24*
X39500Y-17200D03*
G54D25*
X35500Y-17200D03*
G54D18*
X29100Y-11200D03*
X26100Y-11200D03*
M02*
