G04 (created by PCBNEW (2013-07-07 BZR 4022)-stable) date 1/3/2014 7:24:35 AM*
%MOIN*%
G04 Gerber Fmt 3.4, Leading zero omitted, Abs format*
%FSLAX34Y34*%
G01*
G70*
G90*
G04 APERTURE LIST*
%ADD10C,0.00590551*%
%ADD11R,0.07X0.07*%
%ADD12C,0.07*%
%ADD13R,0.35X0.35*%
%ADD14C,0.055*%
%ADD15C,0.0882*%
%ADD16R,0.0882X0.0882*%
%ADD17O,0.0593X0.1187*%
%ADD18O,0.1187X0.0593*%
%ADD19C,0.066*%
%ADD20R,0.06X0.06*%
%ADD21C,0.06*%
%ADD22C,0.01*%
%ADD23C,0.05*%
%ADD24C,0.02*%
G04 APERTURE END LIST*
G54D10*
G54D11*
X35000Y-21200D03*
G54D12*
X35000Y-19200D03*
X35000Y-20200D03*
G54D13*
X41500Y-20200D03*
G54D11*
X25300Y-19300D03*
G54D12*
X25300Y-21300D03*
X25300Y-20300D03*
G54D13*
X18800Y-20300D03*
G54D14*
X10500Y-15500D03*
X10500Y-12500D03*
X10500Y-8000D03*
X10500Y-11000D03*
X10500Y-26000D03*
X10500Y-23000D03*
X10500Y-18500D03*
X10500Y-21500D03*
G54D15*
X36500Y-11200D03*
G54D16*
X35500Y-15200D03*
G54D15*
X37500Y-15200D03*
X22500Y-11300D03*
G54D16*
X21500Y-15300D03*
G54D15*
X23500Y-15300D03*
G54D17*
X31300Y-19500D03*
X32300Y-19500D03*
X33300Y-19500D03*
X27300Y-19500D03*
X28300Y-19500D03*
X29300Y-19500D03*
G54D18*
X8000Y-23000D03*
X8000Y-22000D03*
X8000Y-21000D03*
X8000Y-12500D03*
X8000Y-11500D03*
X8000Y-10500D03*
G54D17*
X17500Y-14300D03*
X18500Y-14300D03*
X40300Y-14300D03*
X41300Y-14300D03*
G54D13*
X31950Y-15150D03*
G54D12*
X25450Y-14150D03*
G54D11*
X25450Y-15150D03*
G54D12*
X25450Y-16150D03*
G54D19*
X13000Y-24000D03*
X12000Y-24000D03*
X13000Y-10000D03*
X12000Y-10000D03*
X13000Y-20500D03*
X12000Y-20500D03*
X13000Y-13500D03*
X12000Y-13500D03*
G54D20*
X19500Y-17100D03*
G54D21*
X23500Y-17100D03*
G54D20*
X39500Y-17200D03*
G54D21*
X35500Y-17200D03*
G54D12*
X29100Y-11200D03*
X26100Y-11200D03*
G54D17*
X31900Y-11200D03*
X32900Y-11200D03*
G54D22*
X28300Y-17800D02*
X32800Y-17800D01*
X33300Y-18300D02*
X33300Y-19500D01*
X32800Y-17800D02*
X33300Y-18300D01*
X25450Y-16150D02*
X25450Y-16750D01*
X29300Y-18700D02*
X29300Y-19500D01*
X28400Y-17800D02*
X29300Y-18700D01*
X26500Y-17800D02*
X28300Y-17800D01*
X28300Y-17800D02*
X28400Y-17800D01*
X25450Y-16750D02*
X26500Y-17800D01*
G54D23*
X25450Y-14150D02*
X25450Y-12600D01*
X25450Y-12600D02*
X18300Y-12600D01*
X18300Y-12600D02*
X17500Y-13400D01*
X17500Y-13400D02*
X17500Y-14300D01*
X25450Y-12600D02*
X25400Y-12600D01*
X19500Y-17100D02*
X18500Y-17100D01*
X18500Y-17100D02*
X17500Y-16100D01*
X17500Y-16100D02*
X17500Y-13400D01*
X17500Y-13400D02*
X18300Y-12600D01*
X18300Y-12600D02*
X25400Y-12600D01*
X25400Y-12600D02*
X26100Y-12600D01*
X26100Y-11200D02*
X26100Y-12600D01*
X40300Y-14300D02*
X40300Y-13200D01*
X38700Y-12600D02*
X39700Y-12600D01*
X39700Y-12600D02*
X40300Y-13200D01*
X40300Y-13200D02*
X40300Y-16400D01*
X40300Y-16400D02*
X39500Y-17200D01*
X26500Y-12600D02*
X38700Y-12600D01*
X26200Y-12600D02*
X26500Y-12600D01*
G54D22*
X25300Y-21300D02*
X24800Y-21300D01*
X24300Y-16100D02*
X23500Y-15300D01*
X24300Y-20800D02*
X24300Y-16100D01*
X24800Y-21300D02*
X24300Y-20800D01*
X25300Y-21300D02*
X26700Y-21300D01*
X28300Y-20600D02*
X28300Y-19500D01*
X27600Y-21300D02*
X28300Y-20600D01*
X26700Y-21300D02*
X27600Y-21300D01*
G54D24*
X29100Y-11200D02*
X31900Y-11200D01*
G54D22*
X13000Y-10000D02*
X13000Y-9000D01*
X12000Y-8000D02*
X10500Y-8000D01*
X13000Y-9000D02*
X12000Y-8000D01*
X8000Y-22000D02*
X9000Y-22000D01*
X10000Y-26000D02*
X9500Y-25500D01*
X9500Y-25500D02*
X9500Y-22500D01*
X9500Y-22500D02*
X9000Y-22000D01*
X10000Y-26000D02*
X10500Y-26000D01*
X13000Y-24000D02*
X13000Y-25000D01*
X12000Y-26000D02*
X10500Y-26000D01*
X13000Y-25000D02*
X12000Y-26000D01*
X10500Y-20500D02*
X11000Y-20500D01*
X11000Y-20500D02*
X12000Y-21500D01*
X8000Y-21000D02*
X9000Y-21000D01*
X9500Y-20500D02*
X10500Y-20500D01*
X10500Y-20500D02*
X12000Y-20500D01*
X9000Y-21000D02*
X9500Y-20500D01*
X12000Y-21500D02*
X12000Y-24000D01*
X13000Y-20500D02*
X13000Y-19500D01*
X12000Y-18500D02*
X10500Y-18500D01*
X13000Y-19500D02*
X12000Y-18500D01*
X12000Y-15500D02*
X13000Y-14500D01*
X10500Y-15500D02*
X12000Y-15500D01*
X13000Y-14500D02*
X13000Y-13500D01*
X8000Y-11500D02*
X9000Y-11500D01*
X10000Y-15500D02*
X10500Y-15500D01*
X9500Y-15000D02*
X10000Y-15500D01*
X9500Y-12000D02*
X9500Y-15000D01*
X9000Y-11500D02*
X9500Y-12000D01*
X35000Y-19200D02*
X35900Y-19200D01*
X37500Y-17600D02*
X37500Y-15200D01*
X35900Y-19200D02*
X37500Y-17600D01*
X35000Y-19200D02*
X34800Y-19200D01*
X32300Y-20600D02*
X32300Y-19500D01*
X32900Y-21200D02*
X32300Y-20600D01*
X33700Y-21200D02*
X32900Y-21200D01*
X34200Y-20700D02*
X33700Y-21200D01*
X34200Y-19800D02*
X34200Y-20700D01*
X34800Y-19200D02*
X34200Y-19800D01*
X8000Y-10500D02*
X9000Y-10500D01*
X9000Y-10500D02*
X9500Y-10000D01*
X11000Y-10000D02*
X12000Y-11000D01*
X12000Y-11000D02*
X12000Y-13500D01*
X9500Y-10000D02*
X11000Y-10000D01*
X11000Y-10000D02*
X12000Y-10000D01*
M02*
