G04 (created by PCBNEW (2013-07-07 BZR 4022)-stable) date 1/3/2014 7:24:35 AM*
%MOIN*%
G04 Gerber Fmt 3.4, Leading zero omitted, Abs format*
%FSLAX34Y34*%
G01*
G70*
G90*
G04 APERTURE LIST*
%ADD10C,0.00590551*%
%ADD11R,0.07X0.07*%
%ADD12C,0.07*%
%ADD13R,0.35X0.35*%
%ADD14C,0.055*%
%ADD15C,0.0882*%
%ADD16R,0.0882X0.0882*%
%ADD17C,0.066*%
%ADD18R,0.06X0.06*%
%ADD19C,0.06*%
G04 APERTURE END LIST*
G54D10*
G54D11*
X35000Y-21200D03*
G54D12*
X35000Y-19200D03*
X35000Y-20200D03*
G54D13*
X41500Y-20200D03*
G54D11*
X25300Y-19300D03*
G54D12*
X25300Y-21300D03*
X25300Y-20300D03*
G54D13*
X18800Y-20300D03*
G54D14*
X10500Y-15500D03*
X10500Y-12500D03*
X10500Y-8000D03*
X10500Y-11000D03*
X10500Y-26000D03*
X10500Y-23000D03*
X10500Y-18500D03*
X10500Y-21500D03*
G54D15*
X36500Y-11200D03*
G54D16*
X35500Y-15200D03*
G54D15*
X37500Y-15200D03*
X22500Y-11300D03*
G54D16*
X21500Y-15300D03*
G54D15*
X23500Y-15300D03*
G54D13*
X31950Y-15150D03*
G54D12*
X25450Y-14150D03*
G54D11*
X25450Y-15150D03*
G54D12*
X25450Y-16150D03*
G54D17*
X13000Y-24000D03*
X12000Y-24000D03*
X13000Y-10000D03*
X12000Y-10000D03*
X13000Y-20500D03*
X12000Y-20500D03*
X13000Y-13500D03*
X12000Y-13500D03*
G54D18*
X19500Y-17100D03*
G54D19*
X23500Y-17100D03*
G54D18*
X39500Y-17200D03*
G54D19*
X35500Y-17200D03*
G54D12*
X29100Y-11200D03*
X26100Y-11200D03*
M02*
