M48
INCH
T01C0.02
T02C0.0354
T03C0.0394
T04C0.0433
T05C0.0472
%
T01
X+006000Y+011250
T02
X+001250Y+015250
X+002250Y+015250
X+001250Y+013250
X+001250Y+012250
X+001250Y+011250
X+001750Y+009500
X+002750Y+009500
X+001000Y+003500
X+001000Y+001500
X+005000Y+002500
X+006250Y+002500
X+010250Y+003500
X+010250Y+001500
X+009750Y+007750
X+008750Y+007750
X+010250Y+011250
X+010250Y+012250
X+010250Y+013250
T03
X+005750Y+015250
X+008750Y+015250
T04
X+009750Y+006000
X+008750Y+006000
X+007750Y+006000
X+003750Y+006000
X+002750Y+006000
X+001750Y+006000
X+004750Y+012500
X+005750Y+012500
X+006750Y+012500
T05
X+010250Y+009750
X+005900Y+009750
X+005500Y+007750
X+001150Y+007750
T00
M30
