G04 DipTrace 2.3.1.0*
%INlinebot-v2.0.gtl*%
%MOIN*%
%ADD13C,0.05*%
%ADD14C,0.013*%
%ADD16R,0.0709X0.0709*%
%ADD17C,0.0709*%
%ADD18R,0.0591X0.0591*%
%ADD19C,0.0591*%
%ADD20R,0.0748X0.0748*%
%ADD21C,0.0748*%
%ADD22R,0.0787X0.0787*%
%ADD23C,0.0787*%
%ADD24C,0.04*%
%FSLAX44Y44*%
G04*
G70*
G90*
G75*
G01*
%LNTop*%
%LPD*%
X8750Y7750D2*
D13*
Y8250D1*
X10250Y9750D1*
X5500Y7750D2*
X4500D1*
X2750Y9500D1*
X10250Y9750D2*
X9500D1*
X6750Y12500D1*
X5500Y7750D2*
X8750D1*
X6750Y12500D2*
Y13250D1*
X8750Y15250D1*
X1750Y9500D2*
D14*
Y8350D1*
X1150Y7750D1*
X1750Y6000D2*
Y7150D1*
X1150Y7750D1*
X4750Y12500D2*
X6000Y11250D1*
X2750Y6000D2*
Y7750D1*
X2250Y8250D1*
Y12000D1*
X2000Y12250D1*
X1250D1*
X2750Y6000D2*
Y3250D1*
X1000Y1500D1*
X10250Y12250D2*
X11000Y11500D1*
Y7000D1*
Y4250D1*
X10250Y3500D1*
X8750Y6000D2*
Y6250D1*
X9500Y7000D1*
X11000D1*
X2250Y15250D2*
D13*
X5750D1*
D24*
X6000Y11250D3*
D16*
X10250Y9750D3*
D17*
X5900D3*
D16*
X5500Y7750D3*
D17*
X1150D3*
D18*
X1250Y15250D3*
D19*
X2250D3*
D18*
X10250Y13250D3*
D19*
Y12250D3*
Y11250D3*
D18*
X1250Y13250D3*
D19*
Y12250D3*
Y11250D3*
D18*
X8750Y7750D3*
D19*
X9750D3*
D18*
X2750Y9500D3*
D19*
X1750D3*
D20*
X9750Y6000D3*
D21*
X8750D3*
X7750D3*
D20*
X3750D3*
D21*
X2750D3*
X1750D3*
D18*
X10250Y1500D3*
D19*
X6250Y2500D3*
X10250Y3500D3*
D18*
X1000D3*
D19*
X5000Y2500D3*
X1000Y1500D3*
D22*
X5750Y15250D3*
D23*
X8750D3*
D20*
X6750Y12500D3*
D21*
X5750D3*
X4750D3*
M02*
