G04 DipTrace 2.3.1.0*
%INlinebot-v2.0.gbo*%
%MOIN*%
%ADD46C,0.0124*%
%FSLAX44Y44*%
G04*
G70*
G90*
G75*
G01*
%LNBotSilk*%
%LPD*%
X4979Y3201D2*
D46*
X4175D1*
Y3660D1*
X4979Y3907D2*
X4941Y3945D1*
X4979Y3984D1*
X5018Y3945D1*
X4979Y3907D1*
X4711Y3945D2*
X4175D1*
X4711Y4231D2*
X4175D1*
X4558D2*
X4673Y4346D1*
X4711Y4423D1*
Y4537D1*
X4673Y4614D1*
X4558Y4652D1*
X4175D1*
X4481Y4899D2*
Y5358D1*
X4558D1*
X4635Y5320D1*
X4673Y5282D1*
X4711Y5205D1*
Y5090D1*
X4673Y5014D1*
X4596Y4937D1*
X4481Y4899D1*
X4405D1*
X4290Y4937D1*
X4214Y5014D1*
X4175Y5090D1*
Y5205D1*
X4214Y5282D1*
X4290Y5358D1*
X4979Y5605D2*
X4175D1*
X4596D2*
X4673Y5682D1*
X4711Y5758D1*
Y5873D1*
X4673Y5949D1*
X4596Y6026D1*
X4481Y6064D1*
X4405D1*
X4290Y6026D1*
X4214Y5949D1*
X4175Y5873D1*
Y5758D1*
X4214Y5682D1*
X4290Y5605D1*
X4711Y6502D2*
X4673Y6426D1*
X4596Y6349D1*
X4481Y6311D1*
X4405D1*
X4290Y6349D1*
X4214Y6426D1*
X4175Y6502D1*
Y6617D1*
X4214Y6694D1*
X4290Y6770D1*
X4405Y6809D1*
X4481D1*
X4596Y6770D1*
X4673Y6694D1*
X4711Y6617D1*
Y6502D1*
X4979Y7171D2*
X4328D1*
X4214Y7209D1*
X4175Y7286D1*
Y7362D1*
X4711Y7056D2*
Y7324D1*
Y8386D2*
X4175Y8616D1*
X4711Y8845D1*
X4787Y9131D2*
X4825D1*
X4902Y9169D1*
X4940Y9207D1*
X4978Y9284D1*
Y9437D1*
X4940Y9513D1*
X4902Y9551D1*
X4825Y9590D1*
X4749D1*
X4672Y9551D1*
X4558Y9475D1*
X4175Y9092D1*
Y9628D1*
X4252Y9913D2*
X4213Y9875D1*
X4175Y9913D1*
X4213Y9952D1*
X4252Y9913D1*
X4978Y10429D2*
X4940Y10314D1*
X4825Y10237D1*
X4634Y10199D1*
X4519D1*
X4328Y10237D1*
X4213Y10314D1*
X4175Y10429D1*
Y10505D1*
X4213Y10620D1*
X4328Y10696D1*
X4519Y10735D1*
X4634D1*
X4825Y10696D1*
X4940Y10620D1*
X4978Y10505D1*
Y10429D1*
X4825Y10696D2*
X4328Y10237D1*
M02*
